<?xml version="1.0" encoding="UTF-8" standalone="no"?>
<!-- Created with Inkscape (http://www.inkscape.org/) -->

<svg
   xmlns:dc="http://purl.org/dc/elements/1.1/"
   xmlns:cc="http://creativecommons.org/ns#"
   xmlns:rdf="http://www.w3.org/1999/02/22-rdf-syntax-ns#"
   xmlns:svg="http://www.w3.org/2000/svg"
   xmlns="http://www.w3.org/2000/svg"
   xmlns:sodipodi="http://sodipodi.sourceforge.net/DTD/sodipodi-0.dtd"
   xmlns:inkscape="http://www.inkscape.org/namespaces/inkscape"
   width="2000"
   height="2000"
   id="svg2"
   version="1.1"
   inkscape:version="0.48.4 r9939"
   sodipodi:docname="New document 1">
  <defs
     id="defs4" />
  <sodipodi:namedview
     id="base"
     pagecolor="#ffffff"
     bordercolor="#666666"
     borderopacity="1.0"
     inkscape:pageopacity="0.0"
     inkscape:pageshadow="2"
     inkscape:zoom="0.24748737"
     inkscape:cx="1094.2737"
     inkscape:cy="834.1566"
     inkscape:document-units="px"
     inkscape:current-layer="layer1"
     showgrid="false"
     inkscape:snap-center="true"
     inkscape:window-width="1280"
     inkscape:window-height="974"
     inkscape:window-x="0"
     inkscape:window-y="0"
     inkscape:window-maximized="1" />
  <metadata
     id="metadata7">
    <rdf:RDF>
      <cc:Work
         rdf:about="">
        <dc:format>image/svg+xml</dc:format>
        <dc:type
           rdf:resource="http://purl.org/dc/dcmitype/StillImage" />
        <dc:title></dc:title>
      </cc:Work>
    </rdf:RDF>
  </metadata>
  <g
     inkscape:label="Layer 1"
     inkscape:groupmode="layer"
     id="layer1"
     transform="translate(0,947.63782)">
    <rect
       style="fill:#ffeeaa;fill-opacity:1;stroke:#000000;stroke-width:2;stroke-opacity:1"
       id="rect2985"
       width="2008.5714"
       height="2008.5714"
       x="-5.1478009"
       y="-942.73511" />
    <path
       sodipodi:type="arc"
       style="fill:#a0892c;fill-opacity:1;stroke:#000000;stroke-opacity:1"
       id="path2987"
       sodipodi:cx="77.85714"
       sodipodi:cy="909.28571"
       sodipodi:rx="5"
       sodipodi:ry="3.5714285"
       d="m 82.85714,909.28571 c 0,1.97244 -2.238577,3.57142 -5,3.57142 -2.761424,0 -5,-1.59898 -5,-3.57142 0,-1.97245 2.238576,-3.57143 5,-3.57143 2.761423,0 5,1.59898 5,3.57143 z"
       transform="translate(0,52.362183)" />
    <path
       transform="translate(139.28572,-581.20924)"
       sodipodi:type="arc"
       style="fill:#a0892c;fill-opacity:1;stroke:#000000;stroke-opacity:1"
       id="path2987-6"
       sodipodi:cx="77.85714"
       sodipodi:cy="909.28571"
       sodipodi:rx="5"
       sodipodi:ry="3.5714285"
       d="m 82.85714,909.28571 c 0,1.97244 -2.238577,3.57142 -5,3.57142 -2.761424,0 -5,-1.59898 -5,-3.57142 0,-1.97245 2.238576,-3.57143 5,-3.57143 2.761423,0 5,1.59898 5,3.57143 z" />
    <path
       transform="translate(305.00001,-125.49495)"
       sodipodi:type="arc"
       style="fill:#a0892c;fill-opacity:1;stroke:#000000;stroke-opacity:1"
       id="path2987-4"
       sodipodi:cx="77.85714"
       sodipodi:cy="909.28571"
       sodipodi:rx="5"
       sodipodi:ry="3.5714285"
       d="m 82.85714,909.28571 c 0,1.97244 -2.238577,3.57142 -5,3.57142 -2.761424,0 -5,-1.59898 -5,-3.57142 0,-1.97245 2.238576,-3.57143 5,-3.57143 2.761423,0 5,1.59898 5,3.57143 z" />
    <path
       transform="translate(736.42858,-68.352095)"
       sodipodi:type="arc"
       style="fill:#a0892c;fill-opacity:1;stroke:#000000;stroke-opacity:1"
       id="path2987-0"
       sodipodi:cx="77.85714"
       sodipodi:cy="909.28571"
       sodipodi:rx="5"
       sodipodi:ry="3.5714285"
       d="m 82.85714,909.28571 c 0,1.97244 -2.238577,3.57142 -5,3.57142 -2.761424,0 -5,-1.59898 -5,-3.57142 0,-1.97245 2.238576,-3.57143 5,-3.57143 2.761423,0 5,1.59898 5,3.57143 z" />
    <path
       transform="translate(762.14286,-282.63781)"
       sodipodi:type="arc"
       style="fill:#a0892c;fill-opacity:1;stroke:#000000;stroke-opacity:1"
       id="path2987-45"
       sodipodi:cx="77.85714"
       sodipodi:cy="909.28571"
       sodipodi:rx="5"
       sodipodi:ry="3.5714285"
       d="m 82.85714,909.28571 c 0,1.97244 -2.238577,3.57142 -5,3.57142 -2.761424,0 -5,-1.59898 -5,-3.57142 0,-1.97245 2.238576,-3.57143 5,-3.57143 2.761423,0 5,1.59898 5,3.57143 z" />
    <path
       transform="translate(53.57143,-321.20924)"
       sodipodi:type="arc"
       style="fill:#a0892c;fill-opacity:1;stroke:#000000;stroke-opacity:1"
       id="path2987-9"
       sodipodi:cx="77.85714"
       sodipodi:cy="909.28571"
       sodipodi:rx="5"
       sodipodi:ry="3.5714285"
       d="m 82.85714,909.28571 c 0,1.97244 -2.238577,3.57142 -5,3.57142 -2.761424,0 -5,-1.59898 -5,-3.57142 0,-1.97245 2.238576,-3.57143 5,-3.57143 2.761423,0 5,1.59898 5,3.57143 z" />
    <path
       transform="translate(322.14286,-371.20923)"
       sodipodi:type="arc"
       style="fill:#a0892c;fill-opacity:1;stroke:#000000;stroke-opacity:1"
       id="path2987-09"
       sodipodi:cx="77.85714"
       sodipodi:cy="909.28571"
       sodipodi:rx="5"
       sodipodi:ry="3.5714285"
       d="m 82.85714,909.28571 c 0,1.97244 -2.238577,3.57142 -5,3.57142 -2.761424,0 -5,-1.59898 -5,-3.57142 0,-1.97245 2.238576,-3.57143 5,-3.57143 2.761423,0 5,1.59898 5,3.57143 z" />
    <path
       transform="translate(515,-5.494947)"
       sodipodi:type="arc"
       style="fill:#a0892c;fill-opacity:1;stroke:#000000;stroke-opacity:1"
       id="path2987-456"
       sodipodi:cx="77.85714"
       sodipodi:cy="909.28571"
       sodipodi:rx="5"
       sodipodi:ry="3.5714285"
       d="m 82.85714,909.28571 c 0,1.97244 -2.238577,3.57142 -5,3.57142 -2.761424,0 -5,-1.59898 -5,-3.57142 0,-1.97245 2.238576,-3.57143 5,-3.57143 2.761423,0 5,1.59898 5,3.57143 z" />
    <path
       transform="translate(212.14287,-752.63781)"
       sodipodi:type="arc"
       style="fill:#a0892c;fill-opacity:1;stroke:#000000;stroke-opacity:1"
       id="path2987-2"
       sodipodi:cx="77.85714"
       sodipodi:cy="909.28571"
       sodipodi:rx="5"
       sodipodi:ry="3.5714285"
       d="m 82.85714,909.28571 c 0,1.97244 -2.238577,3.57142 -5,3.57142 -2.761424,0 -5,-1.59898 -5,-3.57142 0,-1.97245 2.238576,-3.57143 5,-3.57143 2.761423,0 5,1.59898 5,3.57143 z" />
    <path
       style="fill:none;stroke:#000000;stroke-width:1px;stroke-linecap:butt;stroke-linejoin:miter;stroke-opacity:1"
       d="m 1621.133,-945.66853 -187.1429,281.42857 564.2857,158.57143 0,-440 -382.8571,0"
       id="path3086"
       inkscape:connector-curvature="0" />
    <path
       style="fill:none;stroke:#000000;stroke-width:1px;stroke-linecap:butt;stroke-linejoin:miter;stroke-opacity:1"
       d="m 1999.7044,-671.38282 -488.5714,-108.57142 487.1428,107.14285"
       id="path3088"
       inkscape:connector-curvature="0" />
    <path
       style="fill:none;stroke:#000000;stroke-width:1px;stroke-linecap:butt;stroke-linejoin:miter;stroke-opacity:1"
       d="m 1583.9901,-891.38282 414.2857,70"
       id="path3090"
       inkscape:connector-curvature="0" />
    <path
       style="fill:#c8ab37;fill-opacity:1;stroke:#000000;stroke-width:1.42857146;stroke-opacity:1"
       d="m 1715.5099,-586.28279 -279.4751,-78.68796 37.1486,-55.80622 c 20.4318,-30.69342 37.5527,-56.23085 38.0465,-56.74985 0.4939,-0.51901 109.8622,23.2846 243.0408,52.89689 l 242.1428,53.84053 0.3689,81.74597 c 0.2028,44.96027 -0.1186,81.67906 -0.7143,81.59729 -0.5957,-0.0817 -126.8469,-35.55825 -280.5582,-78.83665 l 0,0 z"
       id="path3092"
       inkscape:connector-curvature="0" />
    <path
       style="fill:#c8ab37;fill-opacity:1;stroke:#000000;stroke-width:1.42857146;stroke-opacity:1"
       d="m 1792.1278,-857.36828 c -110,-18.70647 -201.1268,-34.21819 -202.504,-34.47048 -1.991,-0.36474 1.0536,-5.79954 14.8621,-26.53014 l 17.366,-26.07143 187.638,0 187.6379,0 0,60.71429 c 0,56.93641 -0.1556,60.70356 -2.5,60.5419 -1.375,-0.0948 -92.5,-15.47767 -202.5,-34.18414 z"
       id="path3094"
       inkscape:connector-curvature="0" />
    <path
       style="fill:#ffdd55;fill-opacity:1;stroke:#000000;stroke-width:1.42857146;stroke-opacity:1"
       d="m 1722.8421,-585.72549 c -147.3214,-41.4803 -271.5471,-76.49786 -276.0571,-77.8168 l -8.1999,-2.39806 35.8737,-53.89285 c 19.7305,-29.64106 36.3194,-54.38464 36.8642,-54.98572 1.3828,-1.52564 90.2557,17.68434 389.0191,84.0869 l 95.3571,21.1939 0,73.06379 c 0,73.6745 -0.5022,86.38254 -3.4084,86.24364 -0.8754,-0.0418 -122.1273,-34.0145 -269.4487,-75.4948 z"
       id="path3096"
       inkscape:connector-curvature="0" />
    <path
       style="fill:#ffdd55;fill-opacity:1;stroke:#000000;stroke-width:1.42857146;stroke-opacity:1"
       d="m 1952.1278,-831.63773 c -22,-3.81396 -110.7143,-18.90268 -197.1428,-33.53049 -167.731,-28.38804 -163.5715,-27.64695 -163.5715,-29.14284 0,-0.54427 7.0446,-11.72458 15.6546,-24.84514 l 15.6546,-23.85556 186.4883,0 186.4882,0 -0.019,56.07143 c -0.018,52.70164 -0.4422,62.6889 -2.6471,62.36853 -0.4977,-0.0723 -18.9049,-3.25198 -40.9049,-7.06593 z"
       id="path3098"
       inkscape:connector-curvature="0" />
    <path
       style="fill:#ffd42a;fill-opacity:1;stroke:#000000;stroke-width:1.42857146;stroke-opacity:1"
       d="m 1753.439,-727.74583 -240.1174,-52.97139 35.9585,-54.36155 c 27.7737,-41.98799 36.5799,-54.3038 38.6888,-54.1078 3.3623,0.31249 401.4688,67.35538 405.9446,68.36287 l 3.2143,0.72352 0,72.82992 c 0,57.40066 -0.3783,72.79455 -1.7857,72.66287 -0.9822,-0.0919 -109.8385,-24.00418 -241.9031,-53.13844 z"
       id="path3100"
       inkscape:connector-curvature="0" />
    <path
       style="fill:#ffdd55;fill-opacity:1;stroke:#000000;stroke-width:1.42857146;stroke-opacity:1"
       d="m 1949.985,-686.00966 c -23.9643,-5.2851 -128.75,-28.35204 -232.8572,-51.2599 -104.1071,-22.90784 -191.9846,-42.31776 -195.2833,-43.13314 l -5.9977,-1.4825 34.0546,-50.9721 c 18.7301,-28.03465 35.0908,-51.832 36.3572,-52.883 1.9535,-1.62125 32.7809,3.21523 203.3716,31.90674 110.588,18.59971 202.194,34.1512 203.569,34.55885 2.3383,0.69325 2.4908,5.14861 2.3576,68.85922 -0.078,37.4649 -0.5604,69.44486 -1.0714,71.06655 -0.9092,2.88575 -1.8567,2.74394 -44.5004,-6.66072 z"
       id="path3102"
       inkscape:connector-curvature="0" />
    <path
       transform="translate(433.28005,-885.25881)"
       sodipodi:type="arc"
       style="fill:#a0892c;fill-opacity:1;stroke:#000000;stroke-opacity:1"
       id="path2987-2-2"
       sodipodi:cx="77.85714"
       sodipodi:cy="909.28571"
       sodipodi:rx="5"
       sodipodi:ry="3.5714285"
       d="m 82.85714,909.28571 a 5,3.5714285 0 1 1 -10,0 5,3.5714285 0 1 1 10,0 z" />
    <path
       transform="translate(247.41198,-1107.4924)"
       sodipodi:type="arc"
       style="fill:#a0892c;fill-opacity:1;stroke:#000000;stroke-opacity:1"
       id="path2987-2-4"
       sodipodi:cx="77.85714"
       sodipodi:cy="909.28571"
       sodipodi:rx="5"
       sodipodi:ry="3.5714285"
       d="m 82.85714,909.28571 a 5,3.5714285 0 1 1 -10,0 5,3.5714285 0 1 1 10,0 z" />
    <path
       transform="translate(910.07205,-1081.2284)"
       sodipodi:type="arc"
       style="fill:#a0892c;fill-opacity:1;stroke:#000000;stroke-opacity:1"
       id="path2987-2-9"
       sodipodi:cx="77.85714"
       sodipodi:cy="909.28571"
       sodipodi:rx="5"
       sodipodi:ry="3.5714285"
       d="m 82.85714,909.28571 a 5,3.5714285 0 1 1 -10,0 5,3.5714285 0 1 1 10,0 z" />
    <path
       transform="translate(936.33602,-697.37043)"
       sodipodi:type="arc"
       style="fill:#a0892c;fill-opacity:1;stroke:#000000;stroke-opacity:1"
       id="path2987-2-8"
       sodipodi:cx="77.85714"
       sodipodi:cy="909.28571"
       sodipodi:rx="5"
       sodipodi:ry="3.5714285"
       d="m 82.85714,909.28571 a 5,3.5714285 0 1 1 -10,0 5,3.5714285 0 1 1 10,0 z" />
    <path
       transform="translate(1299.9909,-370.08102)"
       sodipodi:type="arc"
       style="fill:#a0892c;fill-opacity:1;stroke:#000000;stroke-opacity:1"
       id="path2987-2-6"
       sodipodi:cx="77.85714"
       sodipodi:cy="909.28571"
       sodipodi:rx="5"
       sodipodi:ry="3.5714285"
       d="m 82.85714,909.28571 a 5,3.5714285 0 1 1 -10,0 5,3.5714285 0 1 1 10,0 z" />
    <path
       transform="translate(1291.9098,-547.86787)"
       sodipodi:type="arc"
       style="fill:#a0892c;fill-opacity:1;stroke:#000000;stroke-opacity:1"
       id="path2987-2-82"
       sodipodi:cx="77.85714"
       sodipodi:cy="909.28571"
       sodipodi:rx="5"
       sodipodi:ry="3.5714285"
       d="m 82.85714,909.28571 a 5,3.5714285 0 1 1 -10,0 5,3.5714285 0 1 1 10,0 z" />
    <path
       transform="translate(1308.0721,-947.88827)"
       sodipodi:type="arc"
       style="fill:#a0892c;fill-opacity:1;stroke:#000000;stroke-opacity:1"
       id="path2987-2-0"
       sodipodi:cx="77.85714"
       sodipodi:cy="909.28571"
       sodipodi:rx="5"
       sodipodi:ry="3.5714285"
       d="m 82.85714,909.28571 a 5,3.5714285 0 1 1 -10,0 5,3.5714285 0 1 1 10,0 z" />
    <path
       transform="translate(1304.0316,-1285.2792)"
       sodipodi:type="arc"
       style="fill:#a0892c;fill-opacity:1;stroke:#000000;stroke-opacity:1"
       id="path2987-2-95"
       sodipodi:cx="77.85714"
       sodipodi:cy="909.28571"
       sodipodi:rx="5"
       sodipodi:ry="3.5714285"
       d="m 82.85714,909.28571 a 5,3.5714285 0 1 1 -10,0 5,3.5714285 0 1 1 10,0 z" />
    <path
       transform="translate(332.26479,-1495.391)"
       sodipodi:type="arc"
       style="fill:#a0892c;fill-opacity:1;stroke:#000000;stroke-opacity:1"
       id="path2987-2-22"
       sodipodi:cx="77.85714"
       sodipodi:cy="909.28571"
       sodipodi:rx="5"
       sodipodi:ry="3.5714285"
       d="m 82.85714,909.28571 a 5,3.5714285 0 1 1 -10,0 5,3.5714285 0 1 1 10,0 z" />
    <path
       transform="translate(661.57452,-1628.7311)"
       sodipodi:type="arc"
       style="fill:#a0892c;fill-opacity:1;stroke:#000000;stroke-opacity:1"
       id="path2987-2-7"
       sodipodi:cx="77.85714"
       sodipodi:cy="909.28571"
       sodipodi:rx="5"
       sodipodi:ry="3.5714285"
       d="m 82.85714,909.28571 a 5,3.5714285 0 1 1 -10,0 5,3.5714285 0 1 1 10,0 z" />
    <path
       transform="translate(671.67605,-1378.2133)"
       sodipodi:type="arc"
       style="fill:#a0892c;fill-opacity:1;stroke:#000000;stroke-opacity:1"
       id="path2987-2-23"
       sodipodi:cx="77.85714"
       sodipodi:cy="909.28571"
       sodipodi:rx="5"
       sodipodi:ry="3.5714285"
       d="m 82.85714,909.28571 a 5,3.5714285 0 1 1 -10,0 5,3.5714285 0 1 1 10,0 z" />
    <path
       transform="translate(1176.7523,-40.771288)"
       sodipodi:type="arc"
       style="fill:#a0892c;fill-opacity:1;stroke:#000000;stroke-opacity:1"
       id="path2987-2-40"
       sodipodi:cx="77.85714"
       sodipodi:cy="909.28571"
       sodipodi:rx="5"
       sodipodi:ry="3.5714285"
       d="m 82.85714,909.28571 a 5,3.5714285 0 1 1 -10,0 5,3.5714285 0 1 1 10,0 z" />
    <path
       transform="translate(1572.7321,-252.90332)"
       sodipodi:type="arc"
       style="fill:#a0892c;fill-opacity:1;stroke:#000000;stroke-opacity:1"
       id="path2987-2-25"
       sodipodi:cx="77.85714"
       sodipodi:cy="909.28571"
       sodipodi:rx="5"
       sodipodi:ry="3.5714285"
       d="m 82.85714,909.28571 a 5,3.5714285 0 1 1 -10,0 5,3.5714285 0 1 1 10,0 z" />
    <path
       transform="translate(1639.4021,-683.22831)"
       sodipodi:type="arc"
       style="fill:#a0892c;fill-opacity:1;stroke:#000000;stroke-opacity:1"
       id="path2987-2-81"
       sodipodi:cx="77.85714"
       sodipodi:cy="909.28571"
       sodipodi:rx="5"
       sodipodi:ry="3.5714285"
       d="m 82.85714,909.28571 a 5,3.5714285 0 1 1 -10,0 5,3.5714285 0 1 1 10,0 z" />
    <path
       sodipodi:type="spiral"
       style="fill:none;stroke:#000000;stroke-width:1px;stroke-linecap:butt;stroke-linejoin:miter;stroke-opacity:1"
       id="path3485"
       sodipodi:cx="246.47722"
       sodipodi:cy="403.95898"
       sodipodi:expansion="1"
       sodipodi:revolution="3"
       sodipodi:radius="197.49451"
       sodipodi:argument="-18.312645"
       sodipodi:t0="0"
       d="m 246.47722,403.95898 c 8.50877,5.06475 -2.62925,13.96842 -8.41794,14.14214 -15.687,0.47076 -22.90063,-17.945 -19.86633,-30.97802 5.42766,-23.31301 32.48851,-32.74897 53.53809,-25.59052 30.89111,10.50532 42.82391,47.20572 31.31471,76.09817 -15.33994,38.50909 -61.98148,52.99147 -98.65824,37.0389 -46.15395,-20.07468 -63.20615,-76.78442 -42.76309,-121.21831 24.75928,-53.8154 91.60249,-73.44798 143.77838,-48.48729 61.48749,29.41531 83.70682,106.42999 54.21149,166.33846 -34.05353,69.1667 -121.26378,93.97701 -188.89854,59.93568 C 93.86484,492.55826 66.46061,395.1362 105.05588,319.77958 c 43.29807,-84.53875 150.94343,-114.53906 234.01869,-71.38406 92.22928,47.91022 124.82729,165.7873 77.10825,256.57875"
       transform="translate(52.527932,-1072.8967)" />
    <path
       sodipodi:type="spiral"
       style="fill:none;stroke:#000000;stroke-width:1px;stroke-linecap:butt;stroke-linejoin:miter;stroke-opacity:1"
       id="path3487"
       sodipodi:cx="1680.8938"
       sodipodi:cy="1793.9288"
       sodipodi:expansion="1"
       sodipodi:revolution="3"
       sodipodi:radius="95.361824"
       sodipodi:argument="-18.214529"
       sodipodi:t0="0"
       d="m 1680.8938,1793.9288 c 3.8492,2.8363 -1.9242,6.588 -4.714,6.3977 -7.5605,-0.5158 -10.1558,-9.7065 -8.0813,-15.8258 3.7109,-10.946 17.161,-14.2003 26.9374,-9.7648 14.3474,6.5094 18.3456,24.7096 11.4484,38.0491 -9.1929,17.7794 -32.2908,22.5326 -49.1607,13.132 -21.2291,-11.8297 -26.7409,-39.8873 -14.8156,-60.2724 14.4432,-24.6892 47.4924,-30.9616 71.3841,-16.4992 28.1556,17.0435 35.19,55.1028 18.1828,82.4958 -19.6356,31.6263 -62.7168,39.4235 -93.6075,19.8663 -35.1001,-22.2221 -43.6607,-70.3331 -21.5499,-104.7191 24.8049,-38.5759 77.9514,-47.9005 115.8308,-23.2335 42.0533,27.385 52.1422,85.5711 24.9171,126.9425"
       transform="translate(0,-947.63782)" />
  </g>
</svg>
