<?xml version="1.0" encoding="UTF-8" standalone="no"?>
<!-- Created with Inkscape (http://www.inkscape.org/) -->

<svg
   xmlns:dc="http://purl.org/dc/elements/1.1/"
   xmlns:cc="http://creativecommons.org/ns#"
   xmlns:rdf="http://www.w3.org/1999/02/22-rdf-syntax-ns#"
   xmlns:svg="http://www.w3.org/2000/svg"
   xmlns="http://www.w3.org/2000/svg"
   xmlns:sodipodi="http://sodipodi.sourceforge.net/DTD/sodipodi-0.dtd"
   xmlns:inkscape="http://www.inkscape.org/namespaces/inkscape"
   width="60"
   height="60"
   id="svg2995"
   version="1.1"
   inkscape:version="0.48.4 r9939"
   sodipodi:docname="pistol_backup.png"
   inkscape:export-filename="/home/chris/Coding/games/demigame/res/pistol_img.png"
   inkscape:export-xdpi="179.64127"
   inkscape:export-ydpi="179.64127">
  <defs
     id="defs2997" />
  <sodipodi:namedview
     id="base"
     pagecolor="#ffffff"
     bordercolor="#666666"
     borderopacity="1.0"
     inkscape:pageopacity="0.0"
     inkscape:pageshadow="2"
     inkscape:zoom="7.9195959"
     inkscape:cx="28.1843"
     inkscape:cy="19.520788"
     inkscape:document-units="px"
     inkscape:current-layer="layer1"
     showgrid="false"
     inkscape:window-width="634"
     inkscape:window-height="972"
     inkscape:window-x="640"
     inkscape:window-y="0"
     inkscape:window-maximized="0" />
  <metadata
     id="metadata3000">
    <rdf:RDF>
      <cc:Work
         rdf:about="">
        <dc:format>image/svg+xml</dc:format>
        <dc:type
           rdf:resource="http://purl.org/dc/dcmitype/StillImage" />
        <dc:title></dc:title>
      </cc:Work>
    </rdf:RDF>
  </metadata>
  <g
     inkscape:label="Layer 1"
     inkscape:groupmode="layer"
     id="layer1"
     transform="translate(0,-992.36218)">
    <path
       style="fill:none;stroke:#000000;stroke-width:1px;stroke-linecap:butt;stroke-linejoin:miter;stroke-opacity:1"
       d="m 2.2728432,46.236672 10.1015258,2.399112 c 0,0 1.26269,-1.010153 0.757614,-1.515229 -0.505076,-0.505076 4.419418,-17.046324 4.419418,-17.046324 0,0 1.641497,-1.515229 3.535533,-1.38896 1.894036,0.126269 3.661803,0.378807 5.177032,0.126269 1.515229,-0.252538 6.944799,-1.136422 6.944799,-1.136422 0,0 2.146574,-1.515228 1.894036,-4.04061 -0.252538,-2.525381 0.883883,-4.671955 0.883883,-4.671955 0,0 0.883884,-0.505076 2.272844,-0.505076 1.388959,0 17.425131,0.378807 17.425131,0.378807 0,0 1.641498,-1.262691 2.651651,-1.38896 1.010152,-0.126269 0.505076,-1.641498 0.505076,-1.641498 l 0,-7.0710678 L 7.7024132,8.1034129 c 0,0 -2.1465742,7.1973371 -5.3033009,7.8286821 -3.15672671,0.631345 -0.3788072,3.030458 -0.3788072,3.030458 0,0 4.7982246,0.757614 4.5456865,1.38896 -0.2525382,0.631345 -2.6516505,8.838834 -2.6516505,8.838834 l -1.7677669,6.692261 c 0,0 0.7576144,1.262691 0.5050762,2.272843 -0.2525381,1.010153 -1.76776692,6.439723 -1.76776692,6.439723 0,0 -0.37880721,1.641498 1.38895972,1.641498 z"
       id="path3003"
       inkscape:connector-curvature="0"
       transform="translate(0,992.36218)" />
    <path
       style="fill:none;stroke:#000000;stroke-width:1px;stroke-linecap:butt;stroke-linejoin:miter;stroke-opacity:1"
       d="m 20.455589,28.432733 c 0,0 -2.904188,-4.798225 -1.262691,-7.071068 1.641498,-2.272843 3.788072,-2.777919 3.788072,-2.777919 l 13.63706,0"
       id="path3005"
       inkscape:connector-curvature="0"
       transform="translate(0,992.36218)" />
    <path
       style="fill:none;stroke:#000000;stroke-width:1px;stroke-linecap:butt;stroke-linejoin:miter;stroke-opacity:1"
       d="m 20.455589,20.351513 c 0,0 3.282996,1.388959 3.282996,2.272843 0,0.883883 1.515229,3.030457 2.65165,2.65165 1.136422,-0.378807 0,-1.767767 0,-1.767767 0,0 -3.030457,-4.04061 -1.26269,-4.671955"
       id="path3011"
       inkscape:connector-curvature="0"
       transform="translate(0,992.36218)" />
    <path
       style="fill:none;stroke:#000000;stroke-width:1px;stroke-linecap:butt;stroke-linejoin:miter;stroke-opacity:1"
       d="M 4.2931483,15.048212 58.462579,15.805826"
       id="path3013"
       inkscape:connector-curvature="0"
       transform="translate(0,992.36218)" />
    <path
       style="fill:none;stroke:#000000;stroke-width:1px;stroke-linecap:butt;stroke-linejoin:miter;stroke-opacity:1"
       d="m 4.2931483,32.599612 2.9041886,-2.65165 8.0812201,1.388959 -3.788072,14.268405 -1.010152,0.631346 -7.9549516,-1.515229 2.9041885,-10.227795 z"
       id="path3015"
       inkscape:connector-curvature="0"
       transform="translate(0,992.36218)" />
    <path
       style="fill:none;stroke:#000000;stroke-width:1px;stroke-linecap:butt;stroke-linejoin:miter;stroke-opacity:1"
       d="m 38.638335,18.836284 0,1.136421 4.166879,0.126269 0,-1.136421"
       id="path3017"
       inkscape:connector-curvature="0"
       transform="translate(0,992.36218)" />
    <path
       style="fill:none;stroke:#000000;stroke-width:1px;stroke-linecap:butt;stroke-linejoin:miter;stroke-opacity:1"
       d="m 46.467017,19.088822 -0.252538,1.010152 4.924494,0.252539 0,-1.262691"
       id="path3019"
       inkscape:connector-curvature="0"
       transform="translate(0,992.36218)" />
    <path
       style="fill:none;stroke:#000000;stroke-width:1px;stroke-linecap:butt;stroke-linejoin:miter;stroke-opacity:1"
       d="m 8.3337585,17.068517 8.0812205,1.26269 c 0,0 0.126269,1.641498 -0.631345,1.641498 -0.757615,0 -8.333759,-1.010152 -8.333759,-1.010152 0,0 -0.126269,-1.767767 0.8838835,-1.894036 z"
       id="path3021"
       inkscape:connector-curvature="0"
       transform="translate(0,992.36218)" />
    <path
       style="fill:none;stroke:#000000;stroke-width:1px;stroke-linecap:butt;stroke-linejoin:miter;stroke-opacity:1"
       d="M 9.0913729,9.1135654 7.323606,13.785521"
       id="path3033"
       inkscape:connector-curvature="0"
       transform="translate(0,992.36218)" />
    <path
       style="fill:none;stroke:#000000;stroke-width:1px;stroke-linecap:butt;stroke-linejoin:miter;stroke-opacity:1"
       d="m 10.606602,1001.5389 -1.7677672,4.672"
       id="path3033-1"
       inkscape:connector-curvature="0" />
    <path
       style="fill:none;stroke:#000000;stroke-width:1px;stroke-linecap:butt;stroke-linejoin:miter;stroke-opacity:1"
       d="m 11.995561,1001.6651 -1.767766,4.672"
       id="path3033-7"
       inkscape:connector-curvature="0" />
    <path
       style="fill:none;stroke:#000000;stroke-width:1px;stroke-linecap:butt;stroke-linejoin:miter;stroke-opacity:1"
       d="m 13.384521,1001.6651 -1.767767,4.672"
       id="path3033-5"
       inkscape:connector-curvature="0" />
    <path
       style="fill:none;stroke:#000000;stroke-width:1px;stroke-linecap:butt;stroke-linejoin:miter;stroke-opacity:1"
       d="m 14.89975,1001.7915 -1.767766,4.6719"
       id="path3033-72"
       inkscape:connector-curvature="0" />
    <path
       style="fill:none;stroke:#000000;stroke-width:1px;stroke-linecap:butt;stroke-linejoin:miter;stroke-opacity:1"
       d="m 25.506352,8.6084892 0,3.0304578 c 0,0 0.505076,0.378807 1.894036,0.378807 1.38896,0 5.303301,0.126269 5.303301,0.126269 0,0 1.388959,-0.505076 1.26269,-1.262691 -0.126269,-0.757614 0,-2.1465738 0,-2.1465738"
       id="path3074"
       inkscape:connector-curvature="0"
       transform="translate(0,992.36218)" />
    <path
       style="fill:none;stroke:#000000;stroke-width:1px;stroke-linecap:butt;stroke-linejoin:miter;stroke-opacity:1"
       d="M 32.956227,12.144023 55.55839,12.270292 56.442274,9.1135654"
       id="path3076"
       inkscape:connector-curvature="0"
       transform="translate(0,992.36218)" />
    <path
       style="fill:#333333;fill-opacity:1;stroke:#000000;stroke-width:0.12626907;stroke-opacity:1"
       d="M 28.87878,11.494807 C 27.48982,11.453977 26.282372,11.375529 26.195562,11.32048 26.087258,11.2518 26.037726,10.841106 26.037726,10.011766 l 0,-1.2086254 0.473509,0.078266 c 0.26043,0.043046 1.908241,0.078892 3.661803,0.079656 l 3.188294,0.00139 0,1.0751424 0,1.075143 -0.410374,0.250211 c -0.271503,0.165538 -0.602659,0.242746 -0.978586,0.228153 -0.312516,-0.01213 -1.704632,-0.05546 -3.093592,-0.09629 z"
       id="path3078"
       inkscape:connector-curvature="0"
       transform="translate(0,992.36218)" />
    <path
       style="fill:#333333;fill-opacity:1;stroke:#000000;stroke-width:0.12626907;stroke-opacity:1"
       d="M 7.2236349,46.845802 C 4.6887834,46.236778 2.3991201,45.699871 2.1354942,45.652673 1.2550185,45.495038 1.2600773,45.376852 2.3100838,41.573794 c 0.9952163,-3.604612 1.064081,-4.118596 0.690871,-5.156459 l -0.2279689,-0.63396 0.4134875,-1.605103 0.4134875,-1.605105 0.6035563,1.004041 0.6035563,1.004043 -1.4958401,5.278644 c -0.822712,2.903255 -1.4864336,5.286537 -1.474937,5.296183 0.011497,0.0096 1.9936849,0.393601 4.4048626,0.853237 l 4.38396,0.835699 0.69837,-0.446743 c 0.384104,-0.245708 0.698371,-0.475925 0.698371,-0.511595 0,-0.03567 0.880726,-3.381122 1.95717,-7.434339 1.076444,-4.053216 1.957171,-7.417415 1.957171,-7.475998 0,-0.102017 -8.2543791,-1.566962 -8.7757006,-1.557465 -0.1414566,0.0026 -0.9461439,0.63815 -1.8294152,1.444942 -0.8672823,0.792188 -1.5920157,1.425203 -1.6105187,1.406701 -0.062523,-0.06252 1.2006559,-4.535758 2.249592,-7.966373 C 7.2194171,20.218361 7.2434979,20.081138 6.7757996,19.713246 6.3544925,19.381846 5.1533055,18.995885 3.5798273,18.686328 2.3058483,18.435693 1.8035743,18.119914 1.5578876,17.415136 1.397386,16.954721 1.622403,16.750589 2.6393032,16.434095 3.0645055,16.301757 3.5959027,16.062814 3.8201859,15.90311 l 0.4077875,-0.29037 25.7730596,0.340444 c 14.175182,0.187245 26.355475,0.37262 27.067317,0.411945 1.163233,0.06426 1.294258,0.09584 1.294258,0.311887 0,0.144723 -0.08794,0.240427 -0.220971,0.240487 -0.294758,1.39e-4 -1.704123,0.67299 -2.213381,1.05671 l -0.406702,0.306445 -7.134203,-0.160773 c -4.387072,-0.09886 -10.707902,-0.136867 -16.414979,-0.09869 -8.995351,0.06018 -9.300193,0.07005 -9.912122,0.321245 -1.415179,0.580917 -3.039023,2.033374 -3.627067,3.244251 -0.560468,1.154096 -0.250146,3.440976 0.759209,5.594882 l 0.48642,1.037996 -0.955854,0.466708 c -1.671123,0.815946 -1.514498,0.537767 -2.793677,4.961778 -2.184071,7.553556 -3.436585,12.535665 -3.382393,13.454102 0.03068,0.519881 -0.184403,0.885105 -0.508922,0.864198 -0.113031,-0.0073 -2.2794795,-0.511531 -4.8143311,-1.120553 z M 16.117326,20.456085 c 0.540376,-0.205451 0.828017,-0.8312 0.828555,-1.802482 2.83e-4,-0.510567 -0.05261,-0.852316 -0.13191,-0.852316 -0.07281,0 -1.989451,-0.290918 -4.259203,-0.646484 -4.4725121,-0.700638 -4.7838585,-0.706322 -5.2370017,-0.09561 -0.244858,0.329999 -0.5981226,2.174233 -0.4456772,2.326678 0.078673,0.07867 3.3300589,0.527091 6.7912679,0.936624 1.076444,0.127366 1.996088,0.237231 2.043653,0.244145 0.04757,0.0069 0.232207,-0.04283 0.410316,-0.110551 z"
       id="path3080"
       inkscape:connector-curvature="0"
       transform="translate(0,992.36218)" />
    <path
       style="fill:#cccccc;fill-opacity:1;stroke:#000000;stroke-width:0.12626907;stroke-opacity:1"
       d="M 32.603718,14.8895 C 19.651668,14.696195 8.1930604,14.533594 7.1401453,14.528164 L 5.2257541,14.518291 5.7871323,13.68113 C 6.4205816,12.736491 7.2999952,10.945888 7.7325169,9.7200668 7.8917944,9.2686549 8.0651507,8.8499262 8.1177535,8.7895586 8.1716675,8.7276862 11.852183,8.7208307 16.553696,8.7738455 l 8.3403,0.094046 0.03522,1.5903225 0.03522,1.590321 0.631345,0.238433 c 0.876539,0.331031 4.705256,0.428443 18.986306,0.483056 l 11.410163,0.04364 0.497822,-1.764369 c 0.273802,-0.970403 0.513741,-1.7802891 0.533199,-1.7997469 0.01946,-0.019458 0.300358,9.42e-4 0.624221,0.045332 l 0.588844,0.08071 0,2.9501609 0,2.95016 -1.04172,-0.01747 C 56.621673,15.248826 45.555767,15.082805 32.603718,14.8895 z M 14.541517,11.989979 c 0.489284,-1.281121 0.889607,-2.363773 0.889607,-2.4058936 0,-0.082878 -1.014886,-0.4127584 -1.065336,-0.3462794 -0.07506,0.098901 -1.712583,4.527775 -1.712583,4.631869 0,0.100227 0.901274,0.538632 0.972862,0.473227 0.01421,-0.01299 0.426166,-1.071802 0.91545,-2.352923 z m -3.338988,1.009303 c 0.261279,-0.696559 0.502449,-1.239074 0.535934,-1.20559 0.03348,0.03349 -0.09603,0.491117 -0.287821,1.01696 -0.191785,0.525844 -0.323469,0.981311 -0.29263,1.01215 0.03084,0.03084 0.259112,0.140907 0.507275,0.244596 l 0.451204,0.188525 0.899702,-2.364991 c 0.494837,-1.300745 0.899703,-2.39755 0.899703,-2.4373447 0,-0.079845 -1.016882,-0.4066149 -1.064435,-0.3420503 -0.01633,0.022175 -0.163629,0.4057395 -0.327325,0.8523646 -0.163697,0.4466254 -0.318237,0.7502244 -0.343424,0.6746654 -0.02519,-0.07556 0.04241,-0.348483 0.150215,-0.606496 0.107805,-0.2580127 0.196009,-0.510002 0.196009,-0.559976 0,-0.092519 -1.009473,-0.4341703 -1.065337,-0.360558 -0.07505,0.0989 -1.7125827,4.527774 -1.7125827,4.631869 0,0.09629 0.173019,0.188995 0.9627387,0.515841 0.0086,0.0036 0.229494,-0.563406 0.490774,-1.259965 l 0,0 z m -0.95416,-1.261841 c 0.489284,-1.281121 0.889607,-2.3637731 0.889607,-2.4058938 0,-0.082878 -1.014886,-0.4127584 -1.065337,-0.3462793 -0.075055,0.0989 -1.7125825,4.5277741 -1.7125825,4.6318681 0,0.100228 0.9012738,0.538633 0.9728618,0.473228 0.014214,-0.01299 0.4261668,-1.071802 0.9154507,-2.352923 z M 8.753454,11.62059 C 9.2322481,10.344492 9.6065856,9.2830083 9.585315,9.2617376 9.5640443,9.240467 9.3357491,9.1349475 9.0779924,9.0272498 8.6231194,8.8371918 8.6057308,8.8398569 8.4864368,9.117915 8.1407926,9.9235649 6.8448277,13.439418 6.8448277,13.571474 c 0,0.145105 0.6990561,0.439884 0.9294201,0.39192 0.059769,-0.01244 0.5004119,-1.066706 0.9792062,-2.342804 l 0,0 z"
       id="path3082"
       inkscape:connector-curvature="0"
       transform="translate(0,992.36218)" />
    <path
       style="fill:#666666;fill-opacity:1;stroke:#000000;stroke-width:0.12626907;stroke-opacity:1"
       d="m 25.596879,24.495456 c -0.548639,-0.361631 -1.056378,-1.100665 -1.27657,-1.858101 -0.229668,-0.790029 -0.8926,-1.4344 -2.138491,-2.078617 -0.448312,-0.23181 -0.815324,-0.456172 -0.81558,-0.498582 -2.57e-4,-0.04241 0.334207,-0.25549 0.743255,-0.473509 0.524353,-0.279478 0.915419,-0.3964 1.325825,-0.3964 0.582072,0 0.582103,2.4e-5 0.582103,0.445925 0,0.904569 0.684991,2.436935 1.8531,4.145498 0.635422,0.929414 0.518035,1.235613 -0.273642,0.713786 l 0,0 z"
       id="path3084"
       inkscape:connector-curvature="0"
       transform="translate(0,992.36218)" />
    <path
       style="fill:#666666;fill-opacity:1;stroke:#000000;stroke-width:0.12626907;stroke-opacity:1"
       d="M 6.5959469,44.93025 C 4.8270349,44.585846 3.3547006,44.279019 3.324093,44.248412 3.2934855,44.217804 3.8932683,41.990666 4.6569437,39.299216 L 6.0454444,34.40567 5.5549201,33.603918 C 5.2851318,33.162955 5.0814507,32.757659 5.1022956,32.70326 c 0.020845,-0.0544 0.5474982,-0.563175 1.1703408,-1.130616 0.8303781,-0.756516 1.2008639,-1.016008 1.3889597,-0.97284 0.1410853,0.03238 1.6906323,0.301587 3.4434379,0.598241 1.752806,0.296654 3.243535,0.574361 3.312731,0.617127 0.07676,0.04744 -0.559709,2.659438 -1.632486,6.699529 -1.874871,7.060786 -1.882467,7.081082 -2.639877,7.053759 -0.1832881,-0.0066 -1.780543,-0.293807 -3.5494551,-0.63821 l 0,0 z"
       id="path3086"
       inkscape:connector-curvature="0"
       transform="translate(0,992.36218)" />
    <path
       style="fill:#666666;fill-opacity:1;stroke:#000000;stroke-width:0.12626907;stroke-opacity:1"
       d="m 14.547241,19.286382 c -0.590308,-0.05871 -2.26653,-0.261177 -3.724938,-0.449934 -2.418688,-0.313043 -2.654487,-0.365271 -2.6839406,-0.594476 -0.08164,-0.635313 -0.022919,-0.63642 3.6494436,-0.06882 4.188365,0.647351 4.022126,0.610274 4.022126,0.897063 0,0.325378 -0.06047,0.33573 -1.262691,0.216168 z"
       id="path3092"
       inkscape:connector-curvature="0"
       transform="translate(0,992.36218)" />
    <path
       style="fill:#666666;fill-opacity:1;stroke:#000000;stroke-width:0.12626907;stroke-opacity:1"
       d="m 40.463967,19.474872 c -1.033914,-0.03269 -1.294258,-0.07813 -1.294258,-0.225908 0,-0.152192 0.268619,-0.184986 1.515229,-0.184986 1.431049,0 1.515229,0.01403 1.515229,0.252538 0,0.166478 -0.0753,0.243463 -0.220971,0.225908 -0.121534,-0.01465 -0.803387,-0.04504 -1.515229,-0.06755 z"
       id="path3096"
       inkscape:connector-curvature="0"
       transform="translate(0,992.36218)" />
    <path
       style="fill:#666666;fill-opacity:1;stroke:#000000;stroke-width:0.12626907;stroke-opacity:1"
       d="m 47.59817,19.60251 c -0.417035,-0.03288 -0.599779,-0.102893 -0.599779,-0.229778 0,-0.209383 0.52988,-0.231748 2.379715,-0.100443 0.84574,0.06003 1.155819,0.127783 1.155819,0.252538 0,0.169891 -1.322549,0.204887 -2.935755,0.07768 z"
       id="path3098"
       inkscape:connector-curvature="0"
       transform="translate(0,992.36218)" />
    <path
       style="fill:#cccccc;fill-opacity:1;stroke:#000000;stroke-width:0.12626907;stroke-opacity:1"
       d="m 42.263301,11.647223 -7.828682,-0.03448 0.0395,-1.315661 0.0395,-1.3156619 4.695586,0.066613 c 2.582572,0.036637 7.370444,0.1033945 10.639714,0.14835 l 5.944128,0.081737 -0.327974,1.1995559 -0.327973,1.199556 -2.522563,0.0022 c -1.387409,0.0012 -6.045468,-0.01328 -10.351244,-0.03224 z"
       id="path3100"
       inkscape:connector-curvature="0"
       transform="translate(0,992.36218)" />
    <path
       style="fill:none;stroke:#000000;stroke-width:1px;stroke-linecap:butt;stroke-linejoin:miter;stroke-opacity:1"
       d="m 19.950513,27.296311 5.42957,0.378807 7.323606,-1.26269 c 0,0 1.136421,-1.38896 1.136421,-2.525382 0,-1.136421 0.252538,-5.555839 1.136422,-5.3033"
       id="path3102"
       inkscape:connector-curvature="0"
       transform="translate(0,992.36218)" />
    <path
       style="fill:#cccccc;fill-opacity:1;stroke:#000000;stroke-width:0.12626907;stroke-opacity:1"
       d=""
       id="path3104"
       inkscape:connector-curvature="0"
       transform="translate(0,992.36218)" />
    <path
       style="fill:#cccccc;fill-opacity:1;stroke:#000000;stroke-width:0.12626907;stroke-opacity:1"
       d="m 22.881463,28.257307 c -1.00674,-0.06251 -1.887467,-0.174484 -1.95717,-0.24883 -0.08946,-0.09541 0.0404,-0.11323 0.441478,-0.06057 0.312516,0.04103 1.265951,0.112643 2.118745,0.159131 0.852794,0.04649 1.580616,0.133198 1.617382,0.192687 0.03677,0.05949 -0.03594,0.09986 -0.161574,0.0897 -0.125633,-0.01015 -1.05212,-0.06961 -2.058861,-0.132119 z"
       id="path3110"
       inkscape:connector-curvature="0"
       transform="translate(0,992.36218)" />
    <path
       style="fill:#cccccc;fill-opacity:1;stroke:#000000;stroke-width:0.12626907;stroke-opacity:1"
       d=""
       id="path3112"
       inkscape:connector-curvature="0"
       transform="translate(0,992.36218)" />
    <path
       style="fill:#cccccc;fill-opacity:1;stroke:#000000;stroke-width:0.12626907;stroke-opacity:1"
       d=""
       id="path3116"
       inkscape:connector-curvature="0"
       transform="translate(0,992.36218)" />
    <path
       style="fill:#cccccc;fill-opacity:1;stroke:#000000;stroke-width:0.12626907;stroke-opacity:1"
       d=""
       id="path3120"
       inkscape:connector-curvature="0"
       transform="translate(0,992.36218)" />
    <path
       style="fill:#cccccc;fill-opacity:1;stroke:#000000;stroke-width:0.12626907;stroke-opacity:1"
       d="m 33.240319,26.722749 c -0.0029,-0.05873 0.100966,-0.257601 0.230793,-0.441942 0.539537,-0.766085 0.822279,-1.502428 0.904458,-2.35547 l 0.08515,-0.883884 0.01852,0.829823 c 0.02289,1.025773 -0.239907,1.83326 -0.804735,2.47268 -0.235909,0.267063 -0.431291,0.43752 -0.434182,0.378793 z"
       id="path3122"
       inkscape:connector-curvature="0"
       transform="translate(0,992.36218)" />
    <path
       style="fill:#cccccc;fill-opacity:1;stroke:#000000;stroke-width:0.12626907;stroke-opacity:1"
       d=""
       id="path3126"
       inkscape:connector-curvature="0"
       transform="translate(0,992.36218)" />
    <path
       style="fill:#cccccc;fill-opacity:1;stroke:#000000;stroke-width:0.12626907;stroke-opacity:1"
       d=""
       id="path3128"
       inkscape:connector-curvature="0"
       transform="translate(0,992.36218)" />
  </g>
</svg>
