<?xml version="1.0" encoding="UTF-8" standalone="no"?>
<!-- Created with Inkscape (http://www.inkscape.org/) -->

<svg
   xmlns:dc="http://purl.org/dc/elements/1.1/"
   xmlns:cc="http://creativecommons.org/ns#"
   xmlns:rdf="http://www.w3.org/1999/02/22-rdf-syntax-ns#"
   xmlns:svg="http://www.w3.org/2000/svg"
   xmlns="http://www.w3.org/2000/svg"
   xmlns:sodipodi="http://sodipodi.sourceforge.net/DTD/sodipodi-0.dtd"
   xmlns:inkscape="http://www.inkscape.org/namespaces/inkscape"
   width="600"
   height="3000"
   id="svg2"
   version="1.1"
   inkscape:version="0.48.4 r9939"
   inkscape:export-filename="/home/chris/Coding/games/demigame/res/tree_bg.png"
   inkscape:export-xdpi="90"
   inkscape:export-ydpi="90"
   sodipodi:docname="New document 1">
  <defs
     id="defs4" />
  <sodipodi:namedview
     id="base"
     pagecolor="#ffffff"
     bordercolor="#666666"
     borderopacity="1.0"
     inkscape:pageopacity="0.0"
     inkscape:pageshadow="2"
     inkscape:zoom="0.12374369"
     inkscape:cx="2345.9263"
     inkscape:cy="2580.8089"
     inkscape:document-units="px"
     inkscape:current-layer="layer1"
     showgrid="false"
     inkscape:window-width="1280"
     inkscape:window-height="974"
     inkscape:window-x="0"
     inkscape:window-y="0"
     inkscape:window-maximized="1" />
  <metadata
     id="metadata7">
    <rdf:RDF>
      <cc:Work
         rdf:about="">
        <dc:format>image/svg+xml</dc:format>
        <dc:type
           rdf:resource="http://purl.org/dc/dcmitype/StillImage" />
        <dc:title></dc:title>
      </cc:Work>
    </rdf:RDF>
  </metadata>
  <g
     inkscape:label="Layer 1"
     inkscape:groupmode="layer"
     id="layer1"
     transform="translate(0,1947.6378)">
    <path
       style="fill:#00ff00;fill-opacity:1;stroke:#000000;stroke-opacity:1"
       d="M 613.3125 -172.3125 C 586.96368 -172.33171 560.63004 -172.12779 534.28125 -172.125 L 534.28125 3011.1875 C 535.863 3011.0673 537.42825 3011.0309 539 3011.0625 C 539.46156 3011.0495 550.60395 3010.6979 548.78125 3011.8438 C 552.15311 3013.1795 555.82813 3010.016 559.34375 3009.125 C 561.37644 3008.6098 563.77017 3009.4752 565.8125 3008.9688 C 568.37507 3008.9994 571.37604 3008.7572 573.875 3009.5 C 579.86814 3007.6302 585.60748 3006.624 591.90625 3007.0625 C 595.95795 3007.0525 600.01097 3007.0457 604.0625 3007.0938 C 608.80566 3007.1037 613.58087 3006.6958 618.3125 3007.1875 C 619.17201 3007.2933 619.69606 3007.362 620 3007.4062 C 622.7563 3006.5676 625.54075 3005.8818 628.3125 3005.0938 C 632.89565 3005.1037 637.49256 3004.6957 642.0625 3005.1875 C 644.14462 3005.4546 644.80383 3005.6874 644.6875 3005.7812 C 644.13728 3006.2252 642.16787 3006.6682 642.84375 3006.875 C 646.77533 3008.0778 649.06864 2989.4787 654.5625 3003.0312 L 666.65625 3003.0312 L 678.875 3003.0312 C 683.71305 3003.0312 688.5682 3003.0308 693.40625 3003.0312 C 699.33324 3003.0316 705.26051 3003.0315 711.1875 3003.0312 C 716.71889 3003.0312 722.24987 3003.0567 727.78125 3003.0312 C 734.33336 3003.0078 740.88747 3002.9392 747.4375 3003.1562 C 756.71982 3003.1753 766.12326 3001.505 775.25 3003.7812 C 781.85361 3005.8241 779.87613 3004.7617 776.46875 3005.0938 C 772.67499 3005.4632 787.16655 3004.9628 783.15625 3004.9062 C 784.95836 3004.9109 786.76019 3004.9652 788.5625 3005 L 788.5625 -163.21875 C 783.80306 -163.06227 779.04115 -162.89177 774.28125 -162.75 C 758.47187 -162.27914 744.56926 -161.67178 728.75 -162.34375 C 721.11321 -162.66815 713.4973 -163.49142 705.875 -164.0625 C 698.68405 -165.01847 691.51226 -166.05028 684.3125 -166.9375 C 676.76268 -167.86787 669.1621 -168.47162 661.625 -169.5 C 656.29663 -170.22701 651.02707 -171.29477 645.71875 -172.15625 C 644.13639 -172.16968 642.55107 -172.17509 640.96875 -172.1875 C 631.74824 -172.27463 622.53302 -172.30578 613.3125 -172.3125 z M 618.09375 3008.0625 C 617.7088 3008.1991 616.807 3008.6959 616.59375 3008.8438 C 616.61097 3008.8389 616.61852 3008.8592 616.65625 3008.8438 C 617.15639 3008.6363 617.61139 3008.3086 618.09375 3008.0625 z M 573.5625 3009.5625 C 573.15968 3009.5805 572.54092 3009.6674 571.90625 3009.9375 C 571.76325 3009.9985 572.22022 3009.9548 572.375 3009.9688 C 572.80438 3009.8256 573.22974 3009.6969 573.65625 3009.5625 C 573.61835 3009.5635 573.60566 3009.5606 573.5625 3009.5625 z "
       transform="translate(0,-1947.6378)"
       id="rect3017" />
    <path
       style="fill:#00ff00;fill-opacity:1;stroke:#000000;stroke-opacity:1"
       d="M -202.84375 -168.5625 L -202.84375 3001.625 C -202.69254 3001.6584 -202.58584 3001.7026 -202.625 3001.7812 C -202.65778 3001.8475 -202.75508 3001.9343 -202.84375 3002 L -202.84375 3002.1562 C -193.6542 2999.0768 -209.85266 3003.0655 -191.46875 2999 C -181.51961 2998.8773 -171.56156 2998.7021 -161.625 2999.375 C -154.91828 2999.5919 -148.22503 2999.3151 -141.90625 2996.9375 C -139.0469 2996.2743 -136.22537 2995.4961 -133.34375 2994.9375 C -129.66513 2994.2245 -125.59955 2995.606 -121.90625 2994.9688 C -115.80017 2994.9677 -109.66858 2994.9587 -103.5625 2994.9688 C -97.106885 2994.9787 -90.674314 2994.9163 -84.21875 2994.9062 C -79.905917 2994.9453 -75.532095 2995.3796 -71.25 2994.8438 C -66.090419 2994.3591 -61.485507 2994.463 -56.4375 2995.875 C -55.161713 2996.2318 -52.424446 2996.043 -52.15625 2996.9688 C -48.124319 2997.0619 -44.069 2997.2917 -40.0625 2996.8125 C -35.989675 2996.5392 -34.720093 2996.2177 -30.34375 2997.0312 C -28.667517 2997.3428 -27.056786 2997.9664 -25.4375 2998.5 C -25.353092 2998.5278 -25.186889 2998.5852 -25.0625 2998.625 C -20.00115 2999.1279 -20.845558 2998.7745 -15.84375 3000.4062 C -15.781359 3000.4266 -15.657844 3000.4683 -15.5625 3000.5 C -12.815875 3000.7461 -9.9736583 3001.0786 -8.03125 3001.3438 C -5.058895 3001.7757 -6.0344317 3001.6435 -8 3001.375 C -7.1702436 3001.8848 -6.3156293 3002.3902 -5.46875 3002.875 C 0.33226096 3002.5981 5.6410956 3002.6719 11.375 3003.875 C 12.177453 3004.0433 14.30994 3004.0568 13.71875 3004.625 C 13.542844 3004.794 13.222701 3004.865 12.84375 3004.875 C 14.756278 3005.1536 16.70996 3005.3301 18.625 3005.5938 C 19.303387 3006.0167 19.974742 3006.4252 20.65625 3006.8438 C 20.729605 3006.8346 20.801621 3006.8215 20.875 3006.8125 C 27.228227 3006.5605 26.939066 3006.0751 34.0625 3008.625 C 35.376049 3009.0952 37.084031 3009.4921 37.6875 3010.75 C 37.778026 3010.9387 37.680935 3010.9942 37.5 3010.9688 C 44.278854 3014.4297 40.281777 3011.2051 47.40625 3018.7188 C 47.429675 3018.7748 47.473026 3018.8476 47.5 3018.9062 C 52.810217 3020.1454 58.464819 3020.1557 62.03125 3024.6875 C 62.305157 3024.8606 62.572537 3025.0415 62.84375 3025.2188 L 62.84375 -168.5625 L -202.84375 -168.5625 z M 38.6875 3014.7812 C 38.65943 3014.7834 38.654322 3014.7951 38.65625 3014.8125 C 38.661527 3014.86 38.792622 3014.9795 39.0625 3015.1562 C 40.357714 3016.0051 41.71754 3016.7251 43.09375 3017.4375 C 43.74969 3017.5518 44.240364 3017.6512 44.875 3017.7812 C 42.75527 3016.3765 39.108553 3014.7499 38.6875 3014.7812 z "
       transform="translate(0,-1947.6378)"
       id="rect3015" />
    <path
       style="fill:#666666;fill-opacity:1;stroke:#000000;stroke-opacity:1"
       d="M 54.28125 -77.15625 L 54.28125 3020 L 511.1875 3020 C 511.38528 3019.9277 511.58204 3019.8507 511.78125 3019.7812 C 513.77624 3019.5334 516.85418 3017.1992 518.59375 3016.9688 C 519.60768 3016.2658 520.6394 3015.5564 521.6875 3014.9062 C 526.87976 3011.6861 533.04473 3010.9428 539 3011.0625 C 539.46156 3011.0495 550.60395 3010.6979 548.78125 3011.8438 C 552.15311 3013.1795 555.82813 3010.016 559.34375 3009.125 C 559.56693 3009.0684 559.76874 3009.027 560 3009 L 560 -77.15625 L 54.28125 -77.15625 z "
       transform="translate(0,-1947.6378)"
       id="rect2993" />
    <rect
       style="fill:#ffff00;fill-opacity:1;stroke:#000000;stroke-opacity:1"
       id="rect2995"
       width="17.142857"
       height="3071.4285"
       x="285"
       y="-2017.6378" />
    <rect
       style="fill:#ffff00;fill-opacity:1;stroke:#000000;stroke-opacity:1"
       id="rect2995-6"
       width="17.142857"
       height="3071.4285"
       x="310.71429"
       y="-2016.2092" />
    <rect
       style="fill:#552200;fill-opacity:1;stroke:#000000;stroke-width:0.60000002;stroke-opacity:1"
       id="rect3041-9"
       width="44.850773"
       height="126.06703"
       x="617.53711"
       y="-1027.7377" />
    <path
       style="fill:#008000;fill-opacity:1;stroke:#000000;stroke-width:1.21218312;stroke-opacity:1"
       d="m 563.94006,-988.69304 c -27.37902,-3.12096 -41.4045,-5.877 -52.48422,-10.31322 -8.18658,-3.27794 -7.99158,-5.74084 0.67476,-8.52314 6.0762,-1.9508 32.04468,-5.8417 38.98794,-5.8417 4.73538,0 7.07118,-4.558 4.9545,-9.668 -2.05872,-4.9703 -6.34374,-7.8335 -20.93226,-13.9867 -14.09394,-5.9445 -13.98144,-6.0526 7.5861,-7.2854 21.2202,-1.2129 36.468,-3.0617 41.34438,-5.0128 4.91052,-1.9648 7.00302,-5.5392 4.79802,-8.196 -2.73174,-3.2915 -26.90946,-7.975 -41.17014,-7.975 l -5.3949,0 2.45508,-2.7274 c 1.35024,-1.5 2.75802,-3.5936 3.12834,-4.6524 1.12056,-3.2034 -2.47758,-8.8382 -7.28526,-11.409 -2.49354,-1.3334 -4.5282,-2.9699 -4.52136,-3.6365 0.0318,-3.1375 21.09564,-8.6155 56.9514,-14.8115 5.9115,-1.0215 5.9862,-1.0864 3.03048,-2.633 -15.73428,-8.2331 -40.00206,-22.7172 -40.00206,-23.8751 0,-2.3947 3.4266,-3.0797 21.21324,-4.2402 47.95002,-3.1286 56.97258,-4.4544 56.97258,-8.3713 0,-2.8771 -4.73526,-4.4365 -27.8925,-9.1854 -28.53084,-5.8508 -27.92604,-5.5751 -19.20204,-8.756 7.60368,-2.7724 30.75876,-16.0905 43.68174,-25.1242 4.2744,-2.9881 8.01822,-5.4328 8.3196,-5.4328 0.30144,0 0.54804,36.2746 0.54804,80.6102 l 0,80.6102 -11.51574,0 -11.51574,0 0,19.8596 c 0,19.5705 -0.0396,19.87026 -2.72742,20.59056 -2.78778,0.74706 -43.4259,0.7359 -50.00256,-0.0138 l 0,-6e-5 z"
       id="path3043-4"
       inkscape:connector-curvature="0" />
    <path
       style="fill:#008000;fill-opacity:1;stroke:#000000;stroke-width:1.21218312;stroke-opacity:1"
       d="m 667.27866,-987.59888 -6.97002,-0.43734 0,-20.54668 0,-20.5466 -10.30356,0 -10.30356,0 0,-80.6414 0,-80.6415 11.21268,7.5522 c 14.92494,10.0524 35.6073,21.8766 41.89548,23.9519 2.79216,0.9215 5.07661,2.1337 5.07661,2.6936 0,0.56 -0.29136,1.0182 -0.64752,1.0182 -3.79027,0 -47.94967,10.3308 -50.10115,11.7208 -2.57442,1.6633 -2.67786,2.0422 -1.01196,3.7081 2.69928,2.6993 17.16138,4.8655 38.51172,5.7685 18.31507,0.7746 37.04083,2.624 39.03247,3.8549 2.55126,1.5768 -5.53092,6.917 -30.59257,20.2137 -6.99198,3.7096 -11.88978,6.9726 -10.90968,7.2682 0.97824,0.2949 7.50618,1.4597 14.50651,2.5883 25.52748,4.1154 47.27514,9.9797 47.27514,12.748 0,0.5644 -2.04552,2.2753 -4.54566,3.8019 -7.86216,4.8011 -9.48372,9.1422 -5.61846,15.0413 1.0767,1.6433 1.75524,2.9878 1.5078,2.9878 -0.24744,0 -7.35582,0.8079 -15.79644,1.7952 -24.46375,2.8617 -34.41571,7.43 -27.87715,12.7968 4.21009,3.4555 9.94177,4.662 28.69237,6.0396 32.21418,2.3669 34.54722,2.6105 34.54722,3.6084 0,0.5509 -3.95478,2.5415 -8.78832,4.4235 -11.44362,4.4559 -18.66456,8.5004 -20.91654,11.7155 -2.2029,3.1451 -2.37546,9.7913 -0.2967,11.4313 0.8334,0.6575 6.2151,1.5401 11.95938,1.9613 12.63264,0.9263 29.15934,3.955 34.9857,6.4115 l 4.26966,1.8002 -3.20706,2.7825 c -10.32432,8.95792 -64.5726,15.70402 -105.58639,13.13032 l 0,0 z"
       id="path3045-9"
       inkscape:connector-curvature="0" />
    <rect
       style="fill:#552200;fill-opacity:1;stroke:#000000;stroke-width:0.60000002;stroke-opacity:1"
       id="rect3041-90"
       width="44.850773"
       height="126.06703"
       x="624.81024"
       y="-564.68384" />
    <path
       style="fill:#008000;fill-opacity:1;stroke:#000000;stroke-width:1.21218312;stroke-opacity:1"
       d="m 571.21317,-525.63911 c -27.37902,-3.12096 -41.4045,-5.877 -52.48422,-10.31322 -8.18658,-3.27792 -7.99158,-5.74086 0.67476,-8.52318 6.0762,-1.95072 32.04468,-5.84166 38.98794,-5.84166 4.73538,0 7.07118,-4.55796 4.9545,-9.66804 -2.05872,-4.97028 -6.34374,-7.83348 -20.93226,-13.98666 -14.09394,-5.9445 -13.98144,-6.05256 7.5861,-7.28538 21.2202,-1.21296 36.468,-3.06168 41.34438,-5.01282 4.91052,-1.96476 7.00302,-5.5392 4.79802,-8.196 -2.73174,-3.29154 -26.90946,-7.97496 -41.17014,-7.97496 l -5.3949,0 2.45508,-2.72742 c 1.35024,-1.50006 2.75802,-3.59364 3.12834,-4.6524 1.12056,-3.2034 -2.47758,-8.83818 -7.28526,-11.409 -2.49354,-1.33338 -4.5282,-2.96988 -4.52136,-3.63654 0.0318,-3.13746 21.09564,-8.61552 56.9514,-14.81148 5.9115,-1.0215 5.9862,-1.08642 3.03048,-2.63304 -15.73428,-8.23308 -40.00206,-22.7172 -40.00206,-23.87502 0,-2.39478 3.4266,-3.07974 21.21324,-4.24026 47.95002,-3.12858 56.97258,-4.45434 56.97258,-8.37132 0,-2.87706 -4.73526,-4.43646 -27.8925,-9.18534 -28.53084,-5.85084 -27.92604,-5.57508 -19.20204,-8.75598 7.60368,-2.77248 30.75876,-16.0905 43.68174,-25.12428 4.2744,-2.98806 8.01822,-5.43276 8.3196,-5.43276 0.30144,0 0.54804,36.27456 0.54804,80.61018 l 0,80.61018 -11.51574,0 -11.51574,0 0,19.85964 c 0,19.5705 -0.0396,19.87026 -2.72742,20.59056 -2.78778,0.74706 -43.4259,0.7359 -50.00256,-0.0138 l 0,-6e-5 z"
       id="path3043-7"
       inkscape:connector-curvature="0" />
    <path
       style="fill:#008000;fill-opacity:1;stroke:#000000;stroke-width:1.21218312;stroke-opacity:1"
       d="m 674.55177,-524.54495 -6.97002,-0.43734 0,-20.54664 0,-20.54664 -10.30356,0 -10.30356,0 0,-80.64144 0,-80.64144 11.21268,7.55214 c 14.92494,10.0524 35.6073,21.87666 41.89548,23.95194 2.79216,0.92154 5.0766,2.13366 5.0766,2.69364 0,0.55998 -0.29136,1.01814 -0.64752,1.01814 -3.79026,0 -47.94966,10.3308 -50.10114,11.72082 -2.57442,1.66332 -2.67786,2.04222 -1.01196,3.70812 2.69928,2.69928 17.16138,4.86546 38.51172,5.76846 18.31506,0.7746 37.04082,2.62398 39.03246,3.85488 2.55126,1.5768 -5.53092,6.91704 -30.59256,20.2137 -6.99198,3.70968 -11.88978,6.97266 -10.90968,7.26822 0.97824,0.29496 7.50618,1.45968 14.5065,2.58828 25.52748,4.1154 47.27514,9.97974 47.27514,12.74802 0,0.56442 -2.04552,2.27532 -4.54566,3.80196 -7.86216,4.80102 -9.48372,9.14214 -5.61846,15.04128 1.0767,1.64328 1.75524,2.98782 1.5078,2.98782 -0.24744,0 -7.35582,0.80784 -15.79644,1.79514 -24.46374,2.8617 -34.4157,7.43004 -27.87714,12.7968 4.21008,3.45552 9.94176,4.66206 28.69236,6.03966 32.21418,2.36682 34.54722,2.61048 34.54722,3.60834 0,0.55092 -3.95478,2.54154 -8.78832,4.42356 -11.44362,4.45584 -18.66456,8.50032 -20.91654,11.71542 -2.2029,3.14514 -2.37546,9.79134 -0.2967,11.43138 0.8334,0.65748 6.2151,1.54008 11.95938,1.96128 12.63264,0.92628 29.15934,3.95496 34.9857,6.41148 l 4.26966,1.80018 -3.20706,2.78256 c -10.32432,8.95788 -64.5726,15.70398 -105.58638,13.13028 l 0,0 z"
       id="path3045-7"
       inkscape:connector-curvature="0" />
    <rect
       style="fill:#552200;fill-opacity:1;stroke:#000000;stroke-width:0.60000002;stroke-opacity:1"
       id="rect3041-8"
       width="44.850773"
       height="126.06703"
       x="627.23462"
       y="-100.41773" />
    <path
       style="fill:#008000;fill-opacity:1;stroke:#000000;stroke-width:1.21218312;stroke-opacity:1"
       d="m 573.63752,-61.373004 c -27.37902,-3.12096 -41.4045,-5.877 -52.48422,-10.31322 -8.18658,-3.27792 -7.99158,-5.74086 0.67476,-8.52318 6.0762,-1.95072 32.04468,-5.84166 38.98794,-5.84166 4.73538,0 7.07118,-4.55796 4.9545,-9.66804 -2.05872,-4.970276 -6.34374,-7.833476 -20.93226,-13.986656 -14.09394,-5.9445 -13.98144,-6.05256 7.5861,-7.28538 21.2202,-1.21296 36.468,-3.06168 41.34438,-5.01282 4.91052,-1.96476 7.00302,-5.5392 4.79802,-8.196 -2.73174,-3.29154 -26.90946,-7.97496 -41.17014,-7.97496 l -5.3949,0 2.45508,-2.72742 c 1.35024,-1.50006 2.75802,-3.59364 3.12834,-4.6524 1.12056,-3.2034 -2.47758,-8.83818 -7.28526,-11.409 -2.49354,-1.33338 -4.5282,-2.96988 -4.52136,-3.63654 0.0318,-3.13746 21.09564,-8.61552 56.9514,-14.81148 5.9115,-1.0215 5.9862,-1.08642 3.03048,-2.63304 -15.73428,-8.23308 -40.00206,-22.7172 -40.00206,-23.87502 0,-2.39478 3.4266,-3.07974 21.21324,-4.24026 47.95002,-3.12858 56.97258,-4.45434 56.97258,-8.37132 0,-2.87706 -4.73526,-4.43646 -27.8925,-9.18534 -28.53084,-5.85084 -27.92604,-5.57508 -19.20204,-8.75598 7.60368,-2.77248 30.75876,-16.0905 43.68174,-25.12428 4.2744,-2.98806 8.01822,-5.43276 8.3196,-5.43276 0.30144,0 0.54804,36.27456 0.54804,80.61018 l 0,80.61018 -11.51574,0 -11.51574,0 0,19.859636 c 0,19.5705 -0.0396,19.87026 -2.72742,20.59056 -2.78778,0.74706 -43.4259,0.7359 -50.00256,-0.0138 l 0,-6e-5 z"
       id="path3043-8"
       inkscape:connector-curvature="0" />
    <path
       style="fill:#008000;fill-opacity:1;stroke:#000000;stroke-width:1.21218312;stroke-opacity:1"
       d="m 676.97612,-60.278844 -6.97002,-0.43734 0,-20.54664 0,-20.546636 -10.30356,0 -10.30356,0 0,-80.64144 0,-80.64144 11.21268,7.55214 c 14.92494,10.0524 35.6073,21.87666 41.89548,23.95194 2.79216,0.92154 5.0766,2.13366 5.0766,2.69364 0,0.55998 -0.29136,1.01814 -0.64752,1.01814 -3.79026,0 -47.94966,10.3308 -50.10114,11.72082 -2.57442,1.66332 -2.67786,2.04222 -1.01196,3.70812 2.69928,2.69928 17.16138,4.86546 38.51172,5.76846 18.31506,0.7746 37.04082,2.62398 39.03246,3.85488 2.55126,1.5768 -5.53092,6.91704 -30.59256,20.2137 -6.99198,3.70968 -11.88978,6.97266 -10.90968,7.26822 0.97824,0.29496 7.50618,1.45968 14.5065,2.58828 25.52748,4.1154 47.27514,9.97974 47.27514,12.74802 0,0.56442 -2.04552,2.27532 -4.54566,3.80196 -7.86216,4.80102 -9.48372,9.14214 -5.61846,15.04128 1.0767,1.64328 1.75524,2.98782 1.5078,2.98782 -0.24744,0 -7.35582,0.80784 -15.79644,1.79514 -24.46374,2.8617 -34.4157,7.43004 -27.87714,12.7968 4.21008,3.45552 9.94176,4.66206 28.69236,6.03966 32.21418,2.36682 34.54722,2.61048 34.54722,3.60834 0,0.55092 -3.95478,2.54154 -8.78832,4.42356 -11.44362,4.45584 -18.66456,8.50032 -20.91654,11.715416 -2.2029,3.14514 -2.37546,9.79134 -0.2967,11.43138 0.8334,0.65748 6.2151,1.54008 11.95938,1.96128 12.63264,0.92628 29.15934,3.95496 34.9857,6.41148 l 4.26966,1.80018 -3.20706,2.78256 c -10.32432,8.95788 -64.5726,15.70398 -105.58638,13.13028 l 0,0 z"
       id="path3045-1"
       inkscape:connector-curvature="0" />
    <rect
       style="fill:#552200;fill-opacity:1;stroke:#000000;stroke-width:0.60000002;stroke-opacity:1"
       id="rect3041-9-8"
       width="44.850773"
       height="126.06703"
       x="-85.225113"
       y="75.730507" />
    <path
       style="fill:#008000;fill-opacity:1;stroke:#000000;stroke-width:1.21218312;stroke-opacity:1"
       d="m -138.82216,114.77516 c -27.37902,-3.1209 -41.4045,-5.877 -52.48422,-10.3132 -8.18658,-3.2779 -7.99158,-5.740796 0.67476,-8.523196 6.0762,-1.9507 32.04468,-5.8416 38.98794,-5.8416 4.73538,0 7.07118,-4.558 4.9545,-9.6681 -2.05872,-4.9702 -6.34374,-7.8334 -20.93226,-13.9866 -14.09394,-5.9445 -13.98144,-6.0526 7.5861,-7.2854 21.2202,-1.213 36.468,-3.0617 41.34438,-5.0128 4.91052,-1.9648 7.00302,-5.5392 4.79802,-8.196 -2.73174,-3.2916 -26.90946,-7.975 -41.17014,-7.975 l -5.3949,0 2.45508,-2.7274 c 1.35024,-1.5001 2.75802,-3.5936 3.12834,-4.6524 1.12056,-3.2034 -2.47758,-8.8382 -7.28526,-11.409 -2.49354,-1.3334 -4.5282,-2.9699 -4.52136,-3.6365 0.0318,-3.1375 21.09564,-8.6155 56.9514,-14.81149996 5.9115,-1.0215 5.9862,-1.0864 3.03048,-2.63300004 -15.73428,-8.2331 -40.00206,-22.7172 -40.00206,-23.8751 0,-2.3947 3.4266,-3.0797 21.21324,-4.2402 47.950012,-3.1286 56.972572,-4.4544 56.972572,-8.3713 0,-2.8771 -4.73526,-4.4365 -27.8925,-9.1854 -28.530832,-5.8508 -27.926032,-5.5751 -19.202032,-8.756 7.60368,-2.7724 30.758752,-16.0905 43.681732,-25.1242 4.2744,-2.9881 8.01822,-5.4328 8.3196,-5.4328 0.30144,0 0.54804,36.2746 0.54804,80.6102 l 0,80.6101 -11.51574,0 -11.51574,0 0,19.8597 c 0,19.570496 -0.0396,19.870196 -2.72742,20.590496 -2.78778,0.7471 -43.425892,0.736 -50.002552,-0.014 l 0,0 z"
       id="path3043-4-0"
       inkscape:connector-curvature="0" />
    <path
       style="fill:#008000;fill-opacity:1;stroke:#000000;stroke-width:1.21218312;stroke-opacity:1"
       d="m -35.483568,115.86936 -6.97002,-0.4373 0,-20.546696 0,-20.5466 -10.30356,0 -10.30356,0 0,-80.6414 0,-80.6415 11.21268,7.5522 c 14.92494,10.0524 35.6073,21.8766 41.8954799,23.9519 2.79216,0.9215 5.07661,2.1337 5.07661,2.6936 0,0.56 -0.29136,1.0182 -0.64752,1.0182 -3.79027,0 -47.9496699,10.3308 -50.1011499,11.7208 -2.57442,1.6633 -2.67786,2.0422 -1.01196,3.7081 2.69928,2.6993 17.16138,4.8655 38.51172,5.7685 18.31506987,0.7746 37.04083,2.624 39.03247,3.8549 2.55126,1.5768 -5.53092,6.917 -30.5925701,20.2137 -6.9919799,3.7096 -11.8897799,6.97260004 -10.9096799,7.26820004 0.97824,0.29489996 7.50618,1.45969996 14.5065099,2.58829996 25.5274801,4.1154 47.2751401,9.9797 47.2751401,12.748 0,0.5644 -2.04552,2.2753 -4.54566,3.8019 -7.86216,4.8011 -9.48372,9.1422 -5.61846,15.0413 1.0767,1.6433 1.75524,2.9878 1.5078,2.9878 -0.24744,0 -7.35582,0.8079 -15.79644,1.7952 -24.4637501,2.8617 -34.41571,7.43 -27.87715,12.7968 4.2100899,3.4555 9.9417699,4.662 28.69237,6.0396 32.21418,2.3668 34.54722,2.6105 34.54722,3.6084 0,0.5509 -3.95478,2.5415 -8.78832,4.4235 -11.44362,4.4559 -18.66456,8.5003 -20.91654,11.7154 -2.2029,3.1452 -2.37546,9.7914 -0.2967,11.4314 0.8334,0.6575 6.2151,1.5401 11.95938,1.9613 12.63264,0.9263 29.15934,3.955 34.9857,6.4115 l 4.26966,1.8002 -3.20706,2.782496 c -10.32432,8.9579 -64.5726001,15.704 -105.58639,13.1303 l 0,0 z"
       id="path3045-9-6"
       inkscape:connector-curvature="0" />
    <rect
       style="fill:#552200;fill-opacity:1;stroke:#000000;stroke-width:0.60000002;stroke-opacity:1"
       id="rect3041-90-5"
       width="44.850773"
       height="126.06703"
       x="-77.951981"
       y="538.78448" />
    <path
       style="fill:#008000;fill-opacity:1;stroke:#000000;stroke-width:1.21218312;stroke-opacity:1"
       d="m -131.54905,577.82916 c -27.37902,-3.121 -41.4045,-5.877 -52.48422,-10.3132 -8.18658,-3.278 -7.99158,-5.7409 0.67476,-8.5232 6.0762,-1.9507 32.04468,-5.8417 38.98794,-5.8417 4.73538,0 7.07118,-4.5579 4.9545,-9.668 -2.05872,-4.9703 -6.34374,-7.8335 -20.93226,-13.9867 -14.09394,-5.9445 -13.98144,-6.0525 7.5861,-7.2854 21.2202,-1.2129 36.468,-3.0616 41.34438,-5.0128 4.91052,-1.9647 7.00302,-5.5392 4.79802,-8.196 -2.73174,-3.2915 -26.90946,-7.9749 -41.17014,-7.9749 l -5.3949,0 2.45508,-2.7275 c 1.35024,-1.5 2.75802,-3.5936 3.12834,-4.6524 1.12056,-3.2034 -2.47758,-8.8381 -7.28526,-11.409 -2.49354,-1.3333 -4.5282,-2.9698 -4.52136,-3.6365 0.0318,-3.1375 21.09564,-8.6155 56.9514,-14.8115 5.911492,-1.0215 5.986192,-1.0864 3.030482,-2.633 -15.734282,-8.2331 -40.002062,-22.7172 -40.002062,-23.875 0,-2.3948 3.4266,-3.0798 21.21324,-4.2403 47.950012,-3.1286 56.972572,-4.4543 56.972572,-8.3713 0,-2.8771 -4.73526,-4.4365 -27.8925,-9.1854 -28.530832,-5.8508 -27.926032,-5.575 -19.202032,-8.7559 7.60368,-2.7725 30.758752,-16.0905 43.681732,-25.1243 4.2744,-2.9881 8.01822,-5.4328 8.3196,-5.4328 0.30144,0 0.54804,36.2746 0.54804,80.6102 l 0,80.6102 -11.51574,0 -11.51574,0 0,19.8596 c 0,19.5705 -0.0396,19.8703 -2.72742,20.5906 -2.78778,0.747 -43.425892,0.7359 -50.002552,-0.014 l 0,-1e-4 z"
       id="path3043-7-7"
       inkscape:connector-curvature="0" />
    <path
       style="fill:#008000;fill-opacity:1;stroke:#000000;stroke-width:1.21218312;stroke-opacity:1"
       d="m -28.210458,578.92326 -6.97002,-0.4373 0,-20.5466 0,-20.5467 -10.30356,0 -10.30356,0 0,-80.6414 0,-80.6415 11.21268,7.5522 c 14.92494,10.0524 35.6072999,21.8766 41.8954799,23.9519 2.79215997,0.9216 5.0766,2.1337 5.0766,2.6937 0,0.5599 -0.29136,1.0181 -0.64752,1.0181 -3.79026,0 -47.9496599,10.3308 -50.1011399,11.7208 -2.57442,1.6633 -2.67786,2.0422 -1.01196,3.7081 2.69928,2.6993 17.16138,4.8655 38.51172,5.7685 18.3150599,0.7746 37.04082,2.624 39.03246,3.8549 2.55126,1.5768 -5.53092,6.917 -30.5925601,20.2137 -6.99198,3.7097 -11.8897799,6.9726 -10.9096799,7.2682 0.97824,0.295 7.5061799,1.4597 14.5064999,2.5883 25.5274801,4.1154 47.2751401,9.9797 47.2751401,12.748 0,0.5644 -2.04552,2.2753 -4.54566,3.802 -7.86216,4.801 -9.48372,9.1421 -5.61846,15.0412 1.0767,1.6433 1.75524,2.9879 1.5078,2.9879 -0.24744,0 -7.35582,0.8078 -15.79644,1.7951 -24.46374013,2.8617 -34.4157,7.43 -27.8771401,12.7968 4.21007997,3.4555 9.94176,4.6621 28.6923601,6.0397 32.21418,2.3668 34.54722,2.6104 34.54722,3.6083 0,0.5509 -3.95478,2.5415 -8.78832,4.4236 -11.44362,4.4558 -18.66456,8.5003 -20.91654,11.7154 -2.2029,3.1451 -2.37546,9.7913 -0.2967,11.4314 0.8334,0.6574 6.2151,1.54 11.95938,1.9612 12.63264,0.9263 29.15934,3.955 34.9857,6.4115 l 4.26966,1.8002 -3.20706,2.7826 c -10.32432,8.9578 -64.5726,15.7039 -105.58638,13.1302 l 0,0 z"
       id="path3045-7-3"
       inkscape:connector-curvature="0" />
    <rect
       style="fill:#552200;fill-opacity:1;stroke:#000000;stroke-width:0.60000002;stroke-opacity:1"
       id="rect3041-9-1"
       width="44.850773"
       height="126.06703"
       x="-85.225121"
       y="-1255.6981" />
    <path
       style="fill:#008000;fill-opacity:1;stroke:#000000;stroke-width:1.21218312;stroke-opacity:1"
       d="m -138.82216,-1216.6534 c -27.37902,-3.1209 -41.4045,-5.877 -52.48422,-10.3132 -8.18658,-3.2779 -7.99158,-5.7408 0.67476,-8.5232 6.0762,-1.9507 32.04468,-5.8416 38.98794,-5.8416 4.73538,0 7.07118,-4.558 4.9545,-9.6681 -2.05872,-4.9702 -6.34374,-7.8334 -20.93226,-13.9866 -14.09394,-5.9445 -13.98144,-6.0526 7.5861,-7.2854 21.2202,-1.213 36.468,-3.0617 41.34438,-5.0128 4.91052,-1.9648 7.00302,-5.5392 4.79802,-8.196 -2.73174,-3.2916 -26.90946,-7.975 -41.17014,-7.975 l -5.3949,0 2.45508,-2.7274 c 1.35024,-1.5001 2.75802,-3.5936 3.12834,-4.6524 1.12056,-3.2034 -2.47758,-8.8382 -7.28526,-11.409 -2.49354,-1.3334 -4.5282,-2.9699 -4.52136,-3.6365 0.0318,-3.1375 21.09564,-8.6155 56.9514,-14.8115 5.9115,-1.0215 5.9862,-1.0864 3.03048,-2.633 -15.73428,-8.2331 -40.00206,-22.7172 -40.00206,-23.8751 0,-2.3947 3.4266,-3.0797 21.21324,-4.2402 47.950012,-3.1286 56.972572,-4.4544 56.972572,-8.3713 0,-2.8771 -4.73526,-4.4365 -27.8925,-9.1854 -28.530832,-5.8508 -27.926032,-5.5751 -19.202032,-8.756 7.60368,-2.7724 30.758752,-16.0905 43.681732,-25.1242 4.2744,-2.9881 8.01822,-5.4328 8.3196,-5.4328 0.30144,0 0.54804,36.2746 0.54804,80.6102 l 0,80.6101 -11.51574,0 -11.51574,0 0,19.8597 c 0,19.5705 -0.0396,19.8702 -2.72742,20.5905 -2.78778,0.7471 -43.425892,0.736 -50.002552,-0.014 l 0,0 z"
       id="path3043-4-8"
       inkscape:connector-curvature="0" />
    <path
       style="fill:#008000;fill-opacity:1;stroke:#000000;stroke-width:1.21218312;stroke-opacity:1"
       d="m -35.483568,-1215.5592 -6.97002,-0.4373 0,-20.5467 0,-20.5466 -10.30356,0 -10.30356,0 0,-80.6414 0,-80.6415 11.21268,7.5522 c 14.92494,10.0524 35.6073,21.8766 41.8954802,23.9519 2.79216,0.9215 5.07661,2.1337 5.07661,2.6936 0,0.56 -0.29136,1.0182 -0.64752,1.0182 -3.79027,0 -47.9496702,10.3308 -50.1011502,11.7208 -2.57442,1.6633 -2.67786,2.0422 -1.01196,3.7081 2.69928,2.6993 17.16138,4.8655 38.51172,5.7685 18.31507015,0.7746 37.04083,2.624 39.03247,3.8549 2.55126,1.5768 -5.53092,6.917 -30.5925698,20.2137 -6.9919802,3.7096 -11.8897802,6.9726 -10.9096802,7.2682 0.97824,0.2949 7.50618,1.4597 14.5065102,2.5883 25.5274798,4.1154 47.2751398,9.9797 47.2751398,12.748 0,0.5644 -2.04552,2.2753 -4.54566,3.8019 -7.86216,4.8011 -9.48372,9.1422 -5.61846,15.0413 1.0767,1.6433 1.75524,2.9878 1.5078,2.9878 -0.24744,0 -7.35582,0.8079 -15.79644,1.7952 -24.4637498,2.8617 -34.41571,7.43 -27.87715,12.7968 4.2100902,3.4555 9.9417702,4.662 28.69237,6.0396 32.21418,2.3668 34.54722,2.6105 34.54722,3.6084 0,0.5509 -3.95478,2.5415 -8.78832,4.4235 -11.44362,4.4559 -18.66456,8.5003 -20.91654,11.7154 -2.2029,3.1452 -2.37546,9.7914 -0.2967,11.4314 0.8334,0.6575 6.2151,1.5401 11.95938,1.9613 12.63264,0.9263 29.15934,3.955 34.9857,6.4115 l 4.26966,1.8002 -3.20706,2.7825 c -10.32432,8.9579 -64.5725998,15.704 -105.58639,13.1303 l 0,0 z"
       id="path3045-9-61"
       inkscape:connector-curvature="0" />
    <rect
       style="fill:#552200;fill-opacity:1;stroke:#000000;stroke-width:0.60000002;stroke-opacity:1"
       id="rect3041-90-8"
       width="44.850773"
       height="126.06703"
       x="-77.951988"
       y="-792.6441" />
    <path
       style="fill:#008000;fill-opacity:1;stroke:#000000;stroke-width:1.21218312;stroke-opacity:1"
       d="m -131.54905,-753.59941 c -27.37902,-3.121 -41.4045,-5.877 -52.48422,-10.3132 -8.18658,-3.278 -7.99158,-5.7409 0.67476,-8.5232 6.0762,-1.9507 32.04468,-5.8417 38.98794,-5.8417 4.73538,0 7.07118,-4.5579 4.9545,-9.668 -2.05872,-4.9703 -6.34374,-7.8335 -20.93226,-13.9867 -14.09394,-5.9445 -13.98144,-6.0525 7.5861,-7.2854 21.2202,-1.2129 36.468,-3.0616 41.34438,-5.0128 4.91052,-1.9647 7.00302,-5.5392 4.79802,-8.196 -2.73174,-3.2915 -26.90946,-7.9749 -41.17014,-7.9749 l -5.3949,0 2.45508,-2.7275 c 1.35024,-1.5 2.75802,-3.5936 3.12834,-4.6524 1.12056,-3.2034 -2.47758,-8.8381 -7.28526,-11.409 -2.49354,-1.3333 -4.5282,-2.9698 -4.52136,-3.6365 0.0318,-3.1375 21.09564,-8.6155 56.9514,-14.8115 5.911492,-1.0215 5.986192,-1.0864 3.030477,-2.633 -15.734277,-8.2331 -40.002057,-22.7172 -40.002057,-23.875 0,-2.3948 3.4266,-3.0798 21.21324,-4.2403 47.950012,-3.1286 56.972572,-4.4543 56.972572,-8.3713 0,-2.8771 -4.73526,-4.4365 -27.8925,-9.1854 -28.530832,-5.8508 -27.926032,-5.575 -19.202032,-8.7559 7.60368,-2.7725 30.758752,-16.0905 43.681732,-25.1243 4.2744,-2.9881 8.01822,-5.4328 8.3196,-5.4328 0.30144,0 0.54804,36.2746 0.54804,80.6102 l 0,80.6102 -11.51574,0 -11.51574,0 0,19.8596 c 0,19.5705 -0.0396,19.8703 -2.72742,20.5906 -2.78778,0.747 -43.425892,0.7359 -50.002552,-0.014 l 0,-10e-5 z"
       id="path3043-7-4"
       inkscape:connector-curvature="0" />
    <path
       style="fill:#008000;fill-opacity:1;stroke:#000000;stroke-width:1.21218312;stroke-opacity:1"
       d="m -28.210458,-752.50531 -6.97002,-0.4373 0,-20.5466 0,-20.5467 -10.30356,0 -10.30356,0 0,-80.6414 0,-80.6415 11.21268,7.5522 c 14.92494,10.0524 35.6073002,21.8766 41.8954802,23.9519 2.79215995,0.9216 5.0766,2.1337 5.0766,2.6937 0,0.5599 -0.29136,1.0181 -0.64752,1.0181 -3.79026,0 -47.9496602,10.3308 -50.1011402,11.7208 -2.57442,1.6633 -2.67786,2.0422 -1.01196,3.7081 2.69928,2.6993 17.16138,4.8655 38.51172,5.7685 18.3150602,0.7746 37.04082,2.624 39.03246,3.8549 2.55126,1.5768 -5.53092,6.917 -30.5925598,20.2137 -6.99198,3.7097 -11.8897802,6.9726 -10.9096802,7.2682 0.97824,0.295 7.5061802,1.4597 14.5065002,2.5883 25.5274798,4.1154 47.2751398,9.9797 47.2751398,12.748 0,0.5644 -2.04552,2.2753 -4.54566,3.802 -7.86216,4.801 -9.48372,9.1421 -5.61846,15.0412 1.0767,1.6433 1.75524,2.9879 1.5078,2.9879 -0.24744,0 -7.35582,0.8078 -15.79644,1.7951 -24.46373985,2.8617 -34.4157,7.43 -27.8771398,12.7968 4.21007995,3.4555 9.94176,4.6621 28.6923598,6.0397 32.21418,2.3668 34.54722,2.6104 34.54722,3.6083 0,0.5509 -3.95478,2.5415 -8.78832,4.4236 -11.44362,4.4558 -18.66456,8.5003 -20.91654,11.7154 -2.2029,3.1451 -2.37546,9.7913 -0.2967,11.4314 0.8334,0.6574 6.2151,1.54 11.95938,1.9612 12.63264,0.9263 29.15934,3.955 34.9857,6.4115 l 4.269655,1.8002 -3.20706,2.7826 c -10.324315,8.9578 -64.572595,15.7039 -105.586375,13.1302 l 0,0 z"
       id="path3045-7-2"
       inkscape:connector-curvature="0" />
    <rect
       style="fill:#552200;fill-opacity:1;stroke:#000000;stroke-width:0.60000002;stroke-opacity:1"
       id="rect3041-8-6"
       width="44.850773"
       height="126.06703"
       x="-75.527611"
       y="-328.37808" />
    <path
       style="fill:#008000;fill-opacity:1;stroke:#000000;stroke-width:1.21218312;stroke-opacity:1"
       d="m -129.12469,-289.33331 c -27.37902,-3.121 -41.4045,-5.877 -52.48422,-10.3132 -8.18658,-3.278 -7.99158,-5.7409 0.67476,-8.5232 6.0762,-1.9507 32.04468,-5.8417 38.98794,-5.8417 4.73538,0 7.07118,-4.5579 4.9545,-9.668 -2.05872,-4.9703 -6.34374,-7.8335 -20.93226,-13.9867 -14.09394,-5.9445 -13.98144,-6.0525 7.5861,-7.2854 21.2202,-1.2129 36.468,-3.0616 41.34438,-5.0128 4.91052,-1.9647 7.00302,-5.5392 4.79802,-8.196 -2.73174,-3.2915 -26.90946,-7.9749 -41.17014,-7.9749 l -5.3949,0 2.45508,-2.7275 c 1.35024,-1.5 2.75802,-3.5936 3.12834,-4.6524 1.12056,-3.2034 -2.47758,-8.8381 -7.28526,-11.409 -2.49354,-1.3333 -4.5282,-2.9698 -4.52136,-3.6365 0.0318,-3.1375 21.09564,-8.6155 56.9514,-14.8115 5.911492,-1.0215 5.986192,-1.0864 3.030472,-2.633 -15.734272,-8.2331 -40.002052,-22.71721 -40.002052,-23.87503 0,-2.39478 3.4266,-3.07974 21.21324,-4.24026 47.950012,-3.12858 56.972572,-4.45434 56.972572,-8.37132 0,-2.87706 -4.73526,-4.43646 -27.8925,-9.18534 -28.530832,-5.85084 -27.926032,-5.57508 -19.202032,-8.75598 7.603677,-2.77248 30.758752,-16.09047 43.681732,-25.12427 4.2744,-2.9881 8.01822,-5.4328 8.3196,-5.4328 0.30144,0 0.54804,36.27459 0.54804,80.6102 l 0,80.6102 -11.51574,0 -11.51574,0 0,19.8596 c 0,19.5705 -0.0396,19.8703 -2.72742,20.5906 -2.78778,0.747 -43.425892,0.7359 -50.002552,-0.014 l 0,-1e-4 z"
       id="path3043-8-6"
       inkscape:connector-curvature="0" />
    <path
       style="fill:#008000;fill-opacity:1;stroke:#000000;stroke-width:1.21218312;stroke-opacity:1"
       d="m -25.786098,-288.23921 -6.97002,-0.4373 0,-20.5466 0,-20.5467 -10.30356,0 -10.30356,0 0,-80.6414 0,-80.6414 11.21268,7.5521 c 14.92494,10.0524 35.6073002,21.87665 41.89548015,23.95193 2.79216005,0.92154 5.07660005,2.13366 5.07660005,2.69364 0,0.55998 -0.29136,1.01814 -0.64752,1.01814 -3.79026005,0 -47.9496602,10.3308 -50.1011402,11.72082 -2.57442,1.66332 -2.67786,2.04222 -1.01196,3.70812 2.69928,2.69928 17.16138,4.86546 38.5117202,5.76846 18.31506,0.7746 37.0408198,2.62398 39.0324598,3.85488 2.55126,1.5768 -5.53092,6.91704 -30.59255985,20.21371 -6.99197995,3.7097 -11.88978015,6.9726 -10.90968015,7.2682 0.9782402,0.295 7.5061802,1.4597 14.5065002,2.5883 25.5274798,4.1154 47.2751398,9.9797 47.2751398,12.748 0,0.5644 -2.04552,2.2753 -4.54566,3.802 -7.86216,4.801 -9.48372,9.1421 -5.61846,15.0412 1.0767,1.6433 1.75524,2.9879 1.5078,2.9879 -0.24744,0 -7.35582,0.8078 -15.79644,1.7951 -24.4637398,2.8617 -34.4156998,7.43 -27.8771398,12.7968 4.21008,3.4555 9.94176,4.6621 28.6923598,6.0397 32.21418,2.3668 34.54722,2.6104 34.54722,3.6083 0,0.5509 -3.95478,2.5415 -8.78832,4.4236 -11.44362,4.4558 -18.66456,8.5003 -20.91654,11.7154 -2.2029,3.1451 -2.37546,9.7913 -0.2967,11.4314 0.8334,0.6574 6.2151,1.54 11.95938,1.9612 12.63264,0.9263 29.15934,3.955 34.985695,6.4115 l 4.26966,1.8002 -3.20706,2.7826 c -10.324315,8.9578 -64.572595,15.7039 -105.586375,13.1302 l 0,0 z"
       id="path3045-1-03"
       inkscape:connector-curvature="0" />
    <rect
       style="fill:#552200;fill-opacity:1;stroke:#000000;stroke-width:0.60000002;stroke-opacity:1"
       id="rect3041-9-1-3"
       width="44.850773"
       height="126.06703"
       x="624.55847"
       y="-1943.5652" />
    <path
       style="fill:#008000;fill-opacity:1;stroke:#000000;stroke-width:1.21218312;stroke-opacity:1"
       d="m 570.96145,-1904.5204 c -27.37902,-3.1209 -41.4045,-5.877 -52.48422,-10.3132 -8.18658,-3.2779 -7.99158,-5.7408 0.67476,-8.5232 6.0762,-1.9507 32.04468,-5.8416 38.98794,-5.8416 4.73538,0 7.07118,-4.558 4.9545,-9.6681 -2.05872,-4.9702 -6.34374,-7.8334 -20.93226,-13.9866 -14.09394,-5.9445 -13.98144,-6.0526 7.5861,-7.2854 21.2202,-1.213 36.468,-3.0617 41.34438,-5.0128 4.91052,-1.9648 7.00302,-5.5392 4.79802,-8.196 -2.73174,-3.2916 -26.90946,-7.975 -41.17014,-7.975 l -5.3949,0 2.45508,-2.7274 c 1.35024,-1.5001 2.75802,-3.5936 3.12834,-4.6524 1.12056,-3.2034 -2.47758,-8.8382 -7.28526,-11.409 -2.49354,-1.3334 -4.5282,-2.9699 -4.52136,-3.6365 0.0318,-3.1375 21.09564,-8.6155 56.9514,-14.8115 5.9115,-1.0215 5.9862,-1.0864 3.03048,-2.633 -15.73428,-8.2331 -40.00206,-22.7172 -40.00206,-23.8751 0,-2.3947 3.4266,-3.0797 21.21324,-4.2402 47.95001,-3.1286 56.97257,-4.4544 56.97257,-8.3713 0,-2.8771 -4.73526,-4.4365 -27.8925,-9.1854 -28.53083,-5.8508 -27.92603,-5.5751 -19.20203,-8.756 7.60368,-2.7724 30.75875,-16.0905 43.68173,-25.1243 4.2744,-2.9881 8.01822,-5.4328 8.3196,-5.4328 0.30144,0 0.54804,36.2747 0.54804,80.6103 l 0,80.6101 -11.51574,0 -11.51574,0 0,19.8597 c 0,19.5705 -0.0396,19.8702 -2.72742,20.5905 -2.78778,0.7471 -43.42589,0.736 -50.00255,-0.014 l 0,0 z"
       id="path3043-4-8-7"
       inkscape:connector-curvature="0" />
    <path
       style="fill:#008000;fill-opacity:1;stroke:#000000;stroke-width:1.21218312;stroke-opacity:1"
       d="m 674.30004,-1903.4262 -6.97002,-0.4373 0,-20.5467 0,-20.5466 -10.30356,0 -10.30356,0 0,-80.6414 0,-80.6416 11.21268,7.5522 c 14.92494,10.0525 35.6073,21.8767 41.89548,23.952 2.79216,0.9215 5.07661,2.1337 5.07661,2.6936 0,0.56 -0.29136,1.0182 -0.64752,1.0182 -3.79027,0 -47.94967,10.3308 -50.10115,11.7208 -2.57442,1.6633 -2.67786,2.0422 -1.01196,3.7081 2.69928,2.6993 17.16138,4.8655 38.51172,5.7685 18.31507,0.7746 37.04083,2.624 39.03247,3.8549 2.55126,1.5768 -5.53092,6.917 -30.59257,20.2137 -6.99198,3.7096 -11.88978,6.9726 -10.90968,7.2682 0.97824,0.2949 7.50618,1.4597 14.50651,2.5883 25.52748,4.1154 47.27514,9.9797 47.27514,12.748 0,0.5644 -2.04552,2.2753 -4.54566,3.8019 -7.86216,4.8011 -9.48372,9.1422 -5.61846,15.0413 1.0767,1.6433 1.75524,2.9878 1.5078,2.9878 -0.24744,0 -7.35582,0.8079 -15.79644,1.7952 -24.46375,2.8617 -34.41571,7.43 -27.87715,12.7968 4.21009,3.4555 9.94177,4.662 28.69237,6.0396 32.21418,2.3668 34.54722,2.6105 34.54722,3.6084 0,0.5509 -3.95478,2.5415 -8.78832,4.4235 -11.44362,4.4559 -18.66456,8.5003 -20.91654,11.7154 -2.2029,3.1452 -2.37546,9.7914 -0.2967,11.4314 0.8334,0.6575 6.2151,1.5401 11.95938,1.9613 12.63264,0.9263 29.15934,3.955 34.9857,6.4115 l 4.26966,1.8002 -3.20706,2.7825 c -10.32432,8.9579 -64.5726,15.704 -105.58639,13.1303 l 0,0 z"
       id="path3045-9-61-2"
       inkscape:connector-curvature="0" />
    <rect
       style="fill:#552200;fill-opacity:1;stroke:#000000;stroke-width:0.60000002;stroke-opacity:1"
       id="rect3041-90-8-8"
       width="44.850773"
       height="126.06703"
       x="631.8316"
       y="-1480.5111" />
    <path
       style="fill:#008000;fill-opacity:1;stroke:#000000;stroke-width:1.21218312;stroke-opacity:1"
       d="m 578.23456,-1441.4664 c -27.37902,-3.121 -41.4045,-5.877 -52.48422,-10.3132 -8.18658,-3.278 -7.99158,-5.7409 0.67476,-8.5232 6.0762,-1.9507 32.04468,-5.8417 38.98794,-5.8417 4.73538,0 7.07118,-4.5579 4.9545,-9.668 -2.05872,-4.9703 -6.34374,-7.8335 -20.93226,-13.9867 -14.09394,-5.9445 -13.98144,-6.0525 7.5861,-7.2854 21.2202,-1.2129 36.468,-3.0616 41.34438,-5.0128 4.91052,-1.9647 7.00302,-5.5392 4.79802,-8.196 -2.73174,-3.2915 -26.90946,-7.9749 -41.17014,-7.9749 l -5.3949,0 2.45508,-2.7275 c 1.35024,-1.5 2.75802,-3.5936 3.12834,-4.6524 1.12056,-3.2034 -2.47758,-8.8381 -7.28526,-11.409 -2.49354,-1.3333 -4.5282,-2.9698 -4.52136,-3.6365 0.0318,-3.1375 21.09564,-8.6155 56.9514,-14.8115 5.91149,-1.0215 5.98619,-1.0864 3.03048,-2.633 -15.73428,-8.2331 -40.00206,-22.7172 -40.00206,-23.875 0,-2.3948 3.4266,-3.0798 21.21324,-4.2403 47.95001,-3.1286 56.97257,-4.4543 56.97257,-8.3713 0,-2.8771 -4.73526,-4.4365 -27.8925,-9.1854 -28.53083,-5.8508 -27.92603,-5.575 -19.20203,-8.7559 7.60368,-2.7725 30.75875,-16.0905 43.68173,-25.1243 4.2744,-2.9881 8.01822,-5.4328 8.3196,-5.4328 0.30144,0 0.54804,36.2746 0.54804,80.6102 l 0,80.6102 -11.51574,0 -11.51574,0 0,19.8596 c 0,19.5705 -0.0396,19.8703 -2.72742,20.5906 -2.78778,0.747 -43.42589,0.7359 -50.00255,-0.014 l 0,-10e-5 z"
       id="path3043-7-4-3"
       inkscape:connector-curvature="0" />
    <path
       style="fill:#008000;fill-opacity:1;stroke:#000000;stroke-width:1.21218312;stroke-opacity:1"
       d="m 681.57315,-1440.3723 -6.97002,-0.4373 0,-20.5466 0,-20.5467 -10.30356,0 -10.30356,0 0,-80.6414 0,-80.6415 11.21268,7.5522 c 14.92494,10.0524 35.6073,21.8766 41.89548,23.9519 2.79216,0.9216 5.0766,2.1337 5.0766,2.6937 0,0.5599 -0.29136,1.0181 -0.64752,1.0181 -3.79026,0 -47.94966,10.3308 -50.10114,11.7208 -2.57442,1.6633 -2.67786,2.0422 -1.01196,3.7081 2.69928,2.6993 17.16138,4.8655 38.51172,5.7685 18.31506,0.7746 37.04082,2.624 39.03246,3.8549 2.55126,1.5768 -5.53092,6.917 -30.59256,20.2137 -6.99198,3.7097 -11.88978,6.9726 -10.90968,7.2682 0.97824,0.295 7.50618,1.4597 14.5065,2.5883 25.52748,4.1154 47.27514,9.9797 47.27514,12.748 0,0.5644 -2.04552,2.2753 -4.54566,3.802 -7.86216,4.801 -9.48372,9.1421 -5.61846,15.0412 1.0767,1.6433 1.75524,2.9879 1.5078,2.9879 -0.24744,0 -7.35582,0.8078 -15.79644,1.7951 -24.46374,2.8617 -34.4157,7.43 -27.87714,12.7968 4.21008,3.4555 9.94176,4.6621 28.69236,6.0397 32.21418,2.3668 34.54722,2.6104 34.54722,3.6083 0,0.5509 -3.95478,2.5415 -8.78832,4.4236 -11.44362,4.4558 -18.66456,8.5003 -20.91654,11.7154 -2.2029,3.1451 -2.37546,9.7913 -0.2967,11.4314 0.8334,0.6574 6.2151,1.54 11.95938,1.9612 12.63264,0.9263 29.15934,3.955 34.9857,6.4115 l 4.26965,1.8002 -3.20706,2.7826 c -10.32431,8.9578 -64.57259,15.7039 -105.58637,13.1302 l 0,0 z"
       id="path3045-7-2-2"
       inkscape:connector-curvature="0" />
    <rect
       style="fill:#552200;fill-opacity:1;stroke:#000000;stroke-width:0.60000002;stroke-opacity:1"
       id="rect3041-9-1-37"
       width="44.850773"
       height="126.06703"
       x="618.84424"
       y="382.14908" />
    <path
       style="fill:#008000;fill-opacity:1;stroke:#000000;stroke-width:1.21218312;stroke-opacity:1"
       d="m 565.24716,421.19386 c -27.37902,-3.1209 -41.4045,-5.877 -52.48422,-10.3132 -8.18658,-3.2779 -7.99158,-5.7408 0.67476,-8.5232 6.0762,-1.9507 32.04468,-5.8416 38.98794,-5.8416 4.73538,0 7.07118,-4.558 4.9545,-9.6681 -2.05872,-4.9702 -6.34374,-7.8334 -20.93226,-13.9866 -14.09394,-5.9445 -13.98144,-6.0526 7.5861,-7.2854 21.2202,-1.213 36.468,-3.0617 41.34438,-5.0128 4.91052,-1.9648 7.00302,-5.5392 4.79802,-8.196 -2.73174,-3.2916 -26.90946,-7.975 -41.17014,-7.975 l -5.3949,0 2.45508,-2.7274 c 1.35024,-1.5001 2.75802,-3.5936 3.12834,-4.6524 1.12056,-3.2034 -2.47758,-8.8382 -7.28526,-11.409 -2.49354,-1.3334 -4.5282,-2.9699 -4.52136,-3.6365 0.0318,-3.1375 21.09564,-8.6155 56.9514,-14.8115 5.9115,-1.0215 5.9862,-1.0864 3.03048,-2.633 -15.73428,-8.2331 -40.00206,-22.7172 -40.00206,-23.8751 0,-2.3947 3.4266,-3.0797 21.21324,-4.2402 47.95002,-3.1286 56.97258,-4.4544 56.97258,-8.3713 0,-2.8771 -4.73526,-4.4365 -27.8925,-9.1854 -28.53084,-5.8508 -27.92604,-5.5751 -19.20204,-8.756 7.60368,-2.7724 30.75876,-16.0905 43.68174,-25.1242 4.2744,-2.9881 8.01822,-5.4328 8.3196,-5.4328 0.30144,0 0.54804,36.2746 0.54804,80.6102 l 0,80.6101 -11.51574,0 -11.51574,0 0,19.8597 c 0,19.5705 -0.0396,19.8702 -2.72742,20.5905 -2.78778,0.7471 -43.4259,0.736 -50.00256,-0.014 l 0,0 z"
       id="path3043-4-8-1"
       inkscape:connector-curvature="0" />
    <path
       style="fill:#008000;fill-opacity:1;stroke:#000000;stroke-width:1.21218312;stroke-opacity:1"
       d="m 668.58576,422.28806 -6.97002,-0.4373 0,-20.5467 0,-20.5466 -10.30356,0 -10.30356,0 0,-80.6414 0,-80.6415 11.21268,7.5522 c 14.92494,10.0524 35.6073,21.8766 41.89548,23.9519 2.79216,0.9215 5.07661,2.1337 5.07661,2.6936 0,0.56 -0.29136,1.0182 -0.64752,1.0182 -3.79027,0 -47.94967,10.3308 -50.10115,11.7208 -2.57442,1.6633 -2.67786,2.0422 -1.01196,3.7081 2.69928,2.6993 17.16138,4.8655 38.51172,5.7685 18.31507,0.7746 37.04083,2.624 39.03247,3.8549 2.55126,1.5768 -5.53092,6.917 -30.59257,20.2137 -6.99198,3.7096 -11.88978,6.9726 -10.90968,7.2682 0.97824,0.2949 7.50618,1.4597 14.50651,2.5883 25.52748,4.1154 47.27514,9.9797 47.27514,12.748 0,0.5644 -2.04552,2.2753 -4.54566,3.8019 -7.86216,4.8011 -9.48372,9.1422 -5.61846,15.0413 1.0767,1.6433 1.75524,2.9878 1.5078,2.9878 -0.24744,0 -7.35582,0.8079 -15.79644,1.7952 -24.46375,2.8617 -34.41571,7.43 -27.87715,12.7968 4.21009,3.4555 9.94177,4.662 28.69237,6.0396 32.21418,2.3668 34.54722,2.6105 34.54722,3.6084 0,0.5509 -3.95478,2.5415 -8.78832,4.4235 -11.44362,4.4559 -18.66456,8.5003 -20.91654,11.7154 -2.2029,3.1452 -2.37546,9.7914 -0.2967,11.4314 0.8334,0.6575 6.2151,1.5401 11.95938,1.9613 12.63264,0.9263 29.15934,3.955 34.98572,6.4115 l 4.2696,1.8002 -3.207,2.7825 c -10.32434,8.9579 -64.57262,15.704 -105.58641,13.1303 l 0,0 z"
       id="path3045-9-61-0"
       inkscape:connector-curvature="0" />
    <rect
       style="fill:#552200;fill-opacity:1;stroke:#000000;stroke-width:0.60000002;stroke-opacity:1"
       id="rect3041-90-8-4"
       width="44.850773"
       height="126.06703"
       x="626.11737"
       y="845.20319" />
    <path
       style="fill:#008000;fill-opacity:1;stroke:#000000;stroke-width:1.21218312;stroke-opacity:1"
       d="m 572.52027,884.2479 c -27.37902,-3.121 -41.4045,-5.87704 -52.48422,-10.31324 -8.18658,-3.278 -7.99158,-5.7409 0.67476,-8.5232 6.0762,-1.9507 32.04468,-5.8417 38.98794,-5.8417 4.73538,0 7.07118,-4.5579 4.9545,-9.668 -2.05872,-4.9703 -6.34374,-7.8335 -20.93226,-13.9867 -14.09394,-5.9445 -13.98144,-6.0525 7.5861,-7.2854 21.2202,-1.2129 36.468,-3.0616 41.34438,-5.0128 4.91052,-1.9647 7.00302,-5.5392 4.79802,-8.196 -2.73174,-3.2915 -26.90946,-7.9749 -41.17014,-7.9749 l -5.3949,0 2.45508,-2.7275 c 1.35024,-1.5 2.75802,-3.5936 3.12834,-4.6524 1.12056,-3.2034 -2.47758,-8.8381 -7.28526,-11.409 -2.49354,-1.3333 -4.5282,-2.9698 -4.52136,-3.6365 0.0318,-3.1375 21.09564,-8.6155 56.9514,-14.8115 5.9115,-1.0215 5.9862,-1.0864 3.03048,-2.633 -15.73428,-8.2331 -40.00206,-22.7172 -40.00206,-23.875 0,-2.3948 3.4266,-3.0798 21.21324,-4.2403 47.95002,-3.1286 56.97258,-4.4543 56.97258,-8.3713 0,-2.8771 -4.73526,-4.4365 -27.8925,-9.1854 -28.53084,-5.8508 -27.92604,-5.575 -19.20204,-8.7559 7.60368,-2.7725 30.75876,-16.0905 43.68174,-25.1243 4.2744,-2.9881 8.01822,-5.4328 8.3196,-5.4328 0.30144,0 0.54804,36.2746 0.54804,80.6102 l 0,80.6102 -11.51574,0 -11.51574,0 0,19.8596 c 0,19.57054 -0.0396,19.87034 -2.72742,20.59064 -2.78778,0.747 -43.4259,0.7359 -50.00256,-0.014 l 0,-10e-5 z"
       id="path3043-7-4-0"
       inkscape:connector-curvature="0" />
    <path
       style="fill:#008000;fill-opacity:1;stroke:#000000;stroke-width:1.21218312;stroke-opacity:1"
       d="m 675.85887,885.342 -6.97002,-0.4373 0,-20.54664 0,-20.5467 -10.30356,0 -10.30356,0 0,-80.6414 0,-80.6415 11.21268,7.5522 c 14.92494,10.0524 35.6073,21.8766 41.89548,23.9519 2.79216,0.9216 5.0766,2.1337 5.0766,2.6937 0,0.5599 -0.29136,1.0181 -0.64752,1.0181 -3.79026,0 -47.94966,10.3308 -50.10114,11.7208 -2.57442,1.6633 -2.67786,2.0422 -1.01196,3.7081 2.69928,2.6993 17.16138,4.8655 38.51172,5.7685 18.31506,0.7746 37.04082,2.624 39.03246,3.8549 2.55126,1.5768 -5.53092,6.917 -30.59256,20.2137 -6.99198,3.7097 -11.88978,6.9726 -10.90968,7.2682 0.97824,0.295 7.50618,1.4597 14.5065,2.5883 25.52748,4.1154 47.27514,9.9797 47.27514,12.748 0,0.5644 -2.04552,2.2753 -4.54566,3.802 -7.86216,4.801 -9.48372,9.1421 -5.61846,15.0412 1.0767,1.6433 1.75524,2.9879 1.5078,2.9879 -0.24744,0 -7.35582,0.8078 -15.79644,1.7951 -24.46374,2.8617 -34.4157,7.43 -27.87714,12.7968 4.21008,3.4555 9.94176,4.6621 28.69236,6.0397 32.21418,2.3668 34.54722,2.6104 34.54722,3.6083 0,0.5509 -3.95478,2.5415 -8.78832,4.4236 -11.44362,4.4558 -18.66456,8.5003 -20.91654,11.7154 -2.2029,3.1451 -2.37546,9.7913 -0.2967,11.4314 0.8334,0.6574 6.2151,1.54 11.95938,1.9612 12.63264,0.9263 29.15932,3.955 34.98572,6.4115 l 4.2696,1.8002 -3.207,2.7826 c -10.32434,8.95784 -64.57262,15.70394 -105.5864,13.13024 l 0,0 z"
       id="path3045-7-2-0"
       inkscape:connector-curvature="0" />
    <rect
       style="fill:#552200;fill-opacity:1;stroke:#000000;stroke-width:0.60000002;stroke-opacity:1"
       id="rect3041-9-1-35"
       width="44.850773"
       height="126.06703"
       x="-91.80497"
       y="-1763.4667" />
    <path
       style="fill:#008000;fill-opacity:1;stroke:#000000;stroke-width:1.21218312;stroke-opacity:1"
       d="m -145.402,-1724.422 c -27.37902,-3.1209 -41.4045,-5.877 -52.48422,-10.3132 -8.18658,-3.2779 -7.99158,-5.7408 0.67476,-8.5232 6.0762,-1.9507 32.04468,-5.8416 38.98794,-5.8416 4.73538,0 7.07118,-4.558 4.9545,-9.6681 -2.05872,-4.9702 -6.34374,-7.8334 -20.93226,-13.9866 -14.09394,-5.9445 -13.98144,-6.0526 7.5861,-7.2854 21.2202,-1.213 36.468,-3.0617 41.34438,-5.0128 4.91052,-1.9648 7.00302,-5.5392 4.79802,-8.196 -2.73174,-3.2916 -26.90946,-7.975 -41.17014,-7.975 l -5.3949,0 2.45508,-2.7274 c 1.35024,-1.5001 2.75802,-3.5936 3.12834,-4.6524 1.12056,-3.2034 -2.47758,-8.8382 -7.28526,-11.409 -2.49354,-1.3334 -4.5282,-2.9699 -4.52136,-3.6365 0.0318,-3.1375 21.09564,-8.6155 56.95139,-14.8115 5.9115,-1.0215 5.9862,-1.0864 3.03048,-2.633 -15.73427,-8.2331 -40.00205,-22.7172 -40.00205,-23.8751 0,-2.3947 3.4266,-3.0797 21.21324,-4.2402 47.950013,-3.1286 56.972573,-4.4544 56.972573,-8.3713 0,-2.8771 -4.73526,-4.4365 -27.892503,-9.1854 -28.53083,-5.8508 -27.92603,-5.5751 -19.20203,-8.756 7.60367,-2.7724 30.758753,-16.0905 43.681733,-25.1242 4.2744,-2.9881 8.01822,-5.4328 8.3196,-5.4328 0.30144,0 0.54804,36.2746 0.54804,80.6102 l 0,80.6101 -11.51574,0 -11.51574,0 0,19.8597 c 0,19.5705 -0.0396,19.8702 -2.72742,20.5905 -2.78778,0.7471 -43.425893,0.736 -50.002553,-0.014 l 0,0 z"
       id="path3043-4-8-0"
       inkscape:connector-curvature="0" />
    <path
       style="fill:#008000;fill-opacity:1;stroke:#000000;stroke-width:1.21218312;stroke-opacity:1"
       d="m -42.063407,-1723.3278 -6.97002,-0.4373 0,-20.5467 0,-20.5466 -10.30356,0 -10.30356,0 0,-80.6414 0,-80.6415 11.21268,7.5522 c 14.92494,10.0524 35.6073,21.8766 41.89548,23.9519 2.79216,0.9215 5.07661,2.1337 5.07661,2.6936 0,0.56 -0.29136,1.0182 -0.64752,1.0182 -3.79027,0 -47.94967,10.3308 -50.10115,11.7208 -2.57442,1.6633 -2.67786,2.0422 -1.01196,3.7081 2.69928,2.6993 17.16138,4.8655 38.51172,5.7685 18.31507,0.7746 37.04083,2.624 39.03247,3.8549 2.55126,1.5768 -5.53092,6.917 -30.59257,20.2137 -6.99198,3.7096 -11.88978,6.9726 -10.90968,7.2682 0.97824,0.2949 7.50618,1.4597 14.50651,2.5883 25.52748,4.1154 47.27514,9.9797 47.27514,12.748 0,0.5644 -2.04552,2.2753 -4.54566,3.8019 -7.86216,4.8011 -9.48372,9.1422 -5.61846,15.0413 1.0767,1.6433 1.75524,2.9878 1.5078,2.9878 -0.24744,0 -7.35582,0.8079 -15.79644,1.7952 -24.46375,2.8617 -34.41571,7.43 -27.87715,12.7968 4.21009,3.4555 9.94177,4.662 28.69237,6.0396 32.21418,2.3668 34.54722,2.6105 34.54722,3.6084 0,0.5509 -3.95478,2.5415 -8.78832,4.4235 -11.44362,4.4559 -18.66456,8.5003 -20.91654,11.7154 -2.2029,3.1452 -2.37546,9.7914 -0.2967,11.4314 0.8334,0.6575 6.2151,1.5401 11.95938,1.9613 12.63264,0.9263 29.15934,3.955 34.9857,6.4115 l 4.26966,1.8002 -3.20706,2.7825 c -10.32432,8.9579 -64.5726,15.704 -105.58639,13.1303 l 0,0 z"
       id="path3045-9-61-6"
       inkscape:connector-curvature="0" />
  </g>
</svg>
